<svg width="33" height="33" viewBox="0 0 33 33" fill="none" xmlns="http://www.w3.org/2000/svg">
<path d="M20.3738 16.4977L32.1873 4.70987C32.7047 4.19246 32.9953 3.49071 32.9953 2.75898C32.9953 2.02725 32.7047 1.3255 32.1873 0.808086C31.67 0.290677 30.9683 0 30.2367 0C29.5051 0 28.8034 0.290677 28.2861 0.808086L16.5 12.6233L4.71389 0.808086C4.19655 0.290677 3.4949 -5.45178e-09 2.76327 0C2.03165 5.45179e-09 1.33 0.290677 0.81266 0.808086C0.295325 1.3255 0.00468862 2.02725 0.00468862 2.75898C0.00468861 3.49071 0.295325 4.19246 0.81266 4.70987L12.6262 16.4977L0.81266 28.2854C0.555156 28.5409 0.35077 28.8448 0.21129 29.1796C0.0718114 29.5145 0 29.8736 0 30.2363C0 30.5991 0.0718114 30.9582 0.21129 31.293C0.35077 31.6279 0.555156 31.9318 0.81266 32.1872C1.06806 32.4448 1.37192 32.6492 1.70671 32.7887C2.0415 32.9282 2.40059 33 2.76327 33C3.12596 33 3.48505 32.9282 3.81984 32.7887C4.15463 32.6492 4.45849 32.4448 4.71389 32.1872L16.5 20.372L28.2861 32.1872C28.5415 32.4448 28.8454 32.6492 29.1802 32.7887C29.5149 32.9282 29.874 33 30.2367 33C30.5994 33 30.9585 32.9282 31.2933 32.7887C31.6281 32.6492 31.9319 32.4448 32.1873 32.1872C32.4448 31.9318 32.6492 31.6279 32.7887 31.293C32.9282 30.9582 33 30.5991 33 30.2363C33 29.8736 32.9282 29.5145 32.7887 29.1796C32.6492 28.8448 32.4448 28.5409 32.1873 28.2854L20.3738 16.4977Z" fill="white"/>
</svg>
