<svg width="1321" height="391" viewBox="0 0 1321 391" fill="none" xmlns="http://www.w3.org/2000/svg">
<path d="M1097.04 32.118C1088.54 32.8939 1079.93 33.3373 1071.42 33.559C1077.85 26.9082 1083.74 19.7031 1088.65 12.1655C1089.95 10.1702 1086.36 8.28583 1085.05 10.3919C1080.25 17.7078 1074.69 24.4695 1068.59 30.8987C1068.04 21.1441 1068.04 11.5004 1068.59 1.74584C1068.7 -0.581948 1064.56 -0.581948 1064.45 1.74584C1063.9 11.3895 1063.9 21.1441 1064.45 30.7878C1057.8 24.9129 1051.7 18.5946 1046.35 11.8329C1044.83 9.94853 1041.23 11.7221 1042.76 13.6065C1043.08 13.939 1043.3 14.2716 1043.63 14.715C1043.63 14.715 1043.63 14.8258 1043.74 14.8258C1049.08 21.5875 1055.18 27.7949 1061.83 33.559C1053.88 33.559 1045.92 33.2264 1037.96 32.6722C1035.35 32.4505 1035.35 36.1085 1037.96 36.3302C1045.59 36.8844 1053.33 37.1061 1061.07 37.2169C1055.07 43.9786 1048.21 50.0752 1040.47 55.3959C1038.4 56.8369 1041.34 59.3864 1043.41 57.9454C1051.37 52.5139 1058.45 46.1956 1064.56 39.323C1065.97 48.8559 1066.3 58.6105 1065.43 68.2542C1065.21 70.5819 1069.35 70.5819 1069.57 68.2542C1070.44 58.943 1070.12 49.6318 1068.92 40.4315C1075.02 46.1956 1081.67 51.6271 1088.75 56.5044C1090.83 57.9454 1093.77 55.3959 1091.7 53.9549C1084.29 48.7451 1077.42 43.2027 1071.1 37.2169C1079.71 36.9953 1088.43 36.6627 1097.04 35.7759C1099.65 35.5542 1099.65 31.8963 1097.04 32.118Z" fill="#FFFEF5"/>
<path d="M1294.85 305.812C1289.85 306.266 1284.8 306.526 1279.8 306.656C1283.58 302.76 1287.04 298.54 1289.92 294.125C1290.69 292.957 1288.57 291.853 1287.81 293.087C1284.99 297.372 1281.72 301.332 1278.14 305.098C1277.82 299.384 1277.82 293.736 1278.14 288.023C1278.2 286.659 1275.77 286.659 1275.71 288.023C1275.39 293.671 1275.39 299.384 1275.71 305.033C1271.8 301.592 1268.22 297.891 1265.08 293.931C1264.19 292.827 1262.07 293.866 1262.97 294.97C1263.16 295.164 1263.29 295.359 1263.48 295.619C1263.48 295.619 1263.48 295.684 1263.54 295.684C1266.68 299.644 1270.27 303.28 1274.17 306.656C1269.5 306.656 1264.83 306.461 1260.15 306.137C1258.62 306.007 1258.62 308.149 1260.15 308.279C1264.63 308.604 1269.18 308.734 1273.72 308.798C1270.2 312.759 1266.17 316.33 1261.62 319.446C1260.41 320.29 1262.14 321.783 1263.35 320.939C1268.03 317.758 1272.19 314.057 1275.77 310.032C1276.6 315.616 1276.8 321.329 1276.28 326.977C1276.16 328.341 1278.59 328.341 1278.72 326.977C1279.23 321.524 1279.04 316.07 1278.33 310.681C1281.92 314.057 1285.82 317.239 1289.98 320.095C1291.2 320.939 1292.93 319.446 1291.71 318.602C1287.36 315.551 1283.33 312.304 1279.61 308.798C1284.67 308.669 1289.79 308.474 1294.85 307.954C1296.38 307.825 1296.38 305.682 1294.85 305.812Z" fill="#FFFEF5"/>
<path d="M363.225 80.9885C355.533 81.6647 347.742 82.0511 340.05 82.2443C345.869 76.4485 351.194 70.1698 355.631 63.6013C356.815 61.8626 353.561 60.2205 352.377 62.0558C348.038 68.4311 343.009 74.3234 337.486 79.926C336.993 71.4256 336.993 63.0218 337.486 54.5214C337.585 52.4929 333.837 52.4929 333.739 54.5214C333.246 62.9252 333.246 71.4256 333.739 79.8294C327.723 74.7098 322.201 69.2039 317.369 63.3116C315.988 61.6694 312.734 63.215 314.114 64.8571C314.41 65.1469 314.607 65.4367 314.903 65.823C314.903 65.823 314.903 65.9196 315.002 65.9196C319.834 71.812 325.356 77.2213 331.372 82.2443C324.173 82.2443 316.974 81.9545 309.775 81.4715C307.408 81.2783 307.408 84.466 309.775 84.6591C316.678 85.1421 323.68 85.3353 330.682 85.4319C325.258 91.3242 319.045 96.637 312.043 101.274C310.17 102.529 312.832 104.751 314.706 103.495C321.905 98.7621 328.315 93.2561 333.837 87.2672C335.119 95.5744 335.415 104.075 334.626 112.479C334.429 114.507 338.176 114.507 338.374 112.479C339.163 104.365 338.867 96.2506 337.782 88.2332C343.305 93.2561 349.32 97.9893 355.73 102.24C357.604 103.495 360.266 101.274 358.393 100.018C351.687 95.4778 345.474 90.6481 339.754 85.4319C347.545 85.2387 355.434 84.9489 363.225 84.1762C365.592 83.983 365.592 80.7953 363.225 80.9885Z" fill="#FFFEF5"/>
<path d="M281.412 284.694C274.529 285.315 267.559 285.67 260.676 285.847C265.882 280.527 270.647 274.762 274.618 268.732C275.676 267.136 272.765 265.629 271.706 267.314C267.824 273.166 263.324 278.576 258.382 283.719C257.941 275.915 257.941 268.2 258.382 260.397C258.471 258.534 255.118 258.534 255.029 260.397C254.588 268.112 254.588 275.915 255.029 283.63C249.647 278.93 244.706 273.876 240.382 268.466C239.147 266.959 236.235 268.378 237.471 269.885C237.735 270.151 237.912 270.417 238.176 270.772C238.176 270.772 238.176 270.861 238.265 270.861C242.588 276.27 247.529 281.236 252.912 285.847C246.471 285.847 240.029 285.581 233.588 285.138C231.471 284.96 231.471 287.887 233.588 288.064C239.765 288.508 246.029 288.685 252.294 288.774C247.441 294.183 241.882 299.06 235.618 303.317C233.941 304.47 236.324 306.509 238 305.356C244.441 301.011 250.176 295.956 255.118 290.458C256.265 298.085 256.529 305.888 255.824 313.603C255.647 315.466 259 315.466 259.176 313.603C259.882 306.154 259.618 298.705 258.647 291.345C263.588 295.956 268.971 300.302 274.706 304.203C276.382 305.356 278.765 303.317 277.088 302.164C271.088 297.996 265.529 293.562 260.412 288.774C267.382 288.596 274.441 288.33 281.412 287.621C283.529 287.443 283.529 284.517 281.412 284.694Z" fill="#FFFEF5"/>
<path d="M128.281 67.0858C126.725 56.0248 122.996 43.6257 112.775 39.434C102.218 35.3058 90.0103 42.8414 85.1121 53.0199C80.2139 63.1985 74.5804 78.7555 75.124 90.0068C67.0622 79.6452 58.6917 63.9268 47.3524 57.5001C36.0131 51.0735 26.7862 51.2365 16.5932 59.2666C6.97992 66.6637 4.161 80.4687 6.75074 92.3833C9.34048 104.298 16.3584 114.681 23.4498 124.527C48.9028 159.565 66.4237 190.506 99.3603 218.898C112.727 189.66 132.397 95.4816 128.281 67.0858Z" fill="#D93F3F"/>
<path d="M1309.87 109.82C1313.66 103.903 1316.96 96.457 1313.8 90.268C1310.46 83.9711 1301.54 82.5651 1295.03 85.416C1288.52 88.2668 1279.46 93.3833 1275.11 98.9763C1275.51 90.727 1277.95 79.7946 1275.17 72.0804C1272.4 64.3661 1267.92 60.6627 1259.77 60.3184C1252.15 59.9094 1245.15 65.3432 1241.5 72.0912C1237.85 78.8392 1236.95 86.6709 1236.3 94.2761C1234.09 121.43 1229.77 143.378 1233.86 170.427C1252.22 161.949 1300.2 125.06 1309.87 109.82Z" fill="#D93F3F"/>
<path d="M752.998 313.659C750.883 309.573 747.742 305.263 743.198 305.029C738.531 304.866 734.816 309.46 734.301 314.084C733.787 318.708 733.721 325.523 735.468 329.821C730.921 326.895 725.522 321.929 720.239 320.979C714.955 320.029 711.391 321.351 708.526 325.863C705.799 330.05 706.588 335.8 709.221 340.077C711.853 344.353 715.998 347.431 720.097 350.289C734.771 360.432 745.803 370.065 762.478 376.604C763.682 363.417 758.473 324.132 752.998 313.659Z" fill="#D93F3F"/>
</svg>
