<svg width="2560" height="491" viewBox="0 0 2560 491" fill="none" xmlns="http://www.w3.org/2000/svg">
<path d="M1322.96 129.879C1321.43 128.756 1319 128.037 1316.67 128.082C1314.1 128.127 1311.68 128.936 1309.97 130.284V114.2H1302.02V166.673H1309.97V139.269C1309.97 137.382 1311.59 135.27 1314.55 135.136C1315.86 135.091 1317.7 135.675 1318.64 137.067C1319.63 138.505 1319.59 140.482 1319.59 142.593L1319.54 166.673H1327.49V142.324C1327.49 135.136 1326.59 132.575 1322.96 129.879Z" fill="white"/>
<path d="M1258.26 147.894C1258.26 153.016 1258.08 154.453 1258.04 154.903C1257.77 157.778 1256.56 160.788 1253.23 160.788C1249.95 160.788 1248.6 157.553 1248.47 154.768C1248.42 154.768 1248.24 153.016 1248.24 147.894C1248.24 142.773 1248.42 140.616 1248.47 140.616C1248.47 137.696 1250 134.821 1253.23 134.821C1256.51 134.821 1257.99 137.696 1258.04 140.571C1258.04 140.616 1258.26 142.773 1258.26 147.894ZM1265.94 141.695C1264.82 130.508 1258.44 128.082 1253.23 128.082C1245.82 128.082 1241.33 132.799 1240.52 141.695C1240.43 142.413 1240.34 143.716 1240.29 147.894C1240.25 150.949 1240.47 153.465 1240.52 154.094C1241.01 162.405 1245.77 167.482 1253.23 167.482C1260.69 167.482 1265.45 162.315 1265.99 154.094C1266.03 153.51 1266.17 150.949 1266.17 147.894C1266.17 146.502 1266.08 142.773 1265.94 141.695Z" fill="white"/>
<path d="M1340.79 143.177C1340.84 141.425 1340.84 141.066 1340.88 140.571C1341.11 137.427 1342.5 134.821 1345.73 134.821C1349.55 134.776 1350.45 138.505 1350.58 140.571C1350.67 141.695 1350.72 142.413 1350.72 143.177H1340.79ZM1350.63 153.69C1350.63 153.69 1350.63 154.274 1350.54 154.992C1350.31 156.834 1349.6 160.788 1345.73 160.788C1342.41 160.788 1341.15 157.778 1340.93 154.813C1340.88 153.959 1340.75 153.016 1340.75 149.781H1358.49C1358.49 149.781 1358.49 147.13 1358.45 145.558C1358.45 144.929 1358.4 143.896 1358.27 141.695C1358 138.325 1356.74 134.641 1354.81 132.305C1352.61 129.52 1349.46 128.082 1345.73 128.082C1338.54 128.082 1334.05 132.754 1333.2 141.695C1333.11 142.503 1332.97 143.626 1332.97 147.894C1332.97 150.949 1333.15 153.51 1333.2 154.094C1333.65 162.27 1338.5 167.482 1345.73 167.482C1352.92 167.482 1357.73 162.405 1358.27 153.69H1350.63Z" fill="white"/>
<path d="M1215.13 87.4244H1344.43L1393.85 145.289L1344.43 202.344H1215.13L1165.49 145.109L1215.13 87.4244ZM1347.53 81H1211.99L1157 144.884L1212.03 208.364H1347.53L1402.34 145.109L1347.53 81Z" fill="white"/>
<path d="M1216.75 121.343H1220.48C1224.57 121.343 1226.81 123.5 1226.9 127.363C1226.9 127.678 1226.95 127.992 1226.95 128.576C1226.95 129.295 1226.95 129.52 1226.9 129.834C1226.68 132.125 1225.65 136.124 1220.88 136.124H1216.75V121.343ZM1235.57 163.394L1234.77 150.545C1234.41 144.794 1232.92 141.38 1229.91 139.628C1232.07 138.325 1234.86 135.135 1234.81 128.442C1234.81 118.288 1228.48 114.694 1221.02 114.604H1208.89V166.673H1216.71L1216.75 142.863H1221.11C1223.62 142.863 1226.45 145.064 1226.9 151.264L1227.71 163.439C1227.8 165.191 1228.12 166.673 1228.12 166.673H1235.98C1235.98 166.673 1235.62 165.236 1235.57 163.394Z" fill="white"/>
<path d="M1289.17 153.33C1289.17 153.914 1289.13 154.408 1289.08 154.768C1288.86 157.688 1287.87 160.788 1284.27 160.788C1280.99 160.788 1279.69 157.418 1279.42 154.948C1279.29 153.465 1279.33 152.297 1279.29 147.894C1279.24 142.773 1279.42 141.425 1279.51 140.616C1279.78 137.337 1281.04 134.821 1284.27 134.821C1287.64 134.776 1289.04 137.696 1289.08 140.571C1289.08 140.616 1289.17 141.29 1289.22 142.818H1297.08C1297.08 142.279 1297.03 141.829 1297.03 141.605C1296.13 130.733 1289.49 128.082 1284.27 128.082C1276.86 128.082 1272.37 132.799 1271.56 141.695C1271.47 142.413 1271.38 143.716 1271.34 147.894C1271.29 150.949 1271.52 153.465 1271.56 154.094C1272.05 162.405 1276.82 167.482 1284.27 167.482C1292 167.527 1296.27 162.81 1297.03 154.094C1297.03 153.779 1297.08 153.555 1297.08 153.33H1289.17Z" fill="white"/>
<path d="M487.585 303.187C481.21 303.187 474.749 302.628 468.374 301.465C434.907 295.391 405.574 277.258 388 251.801C376.026 234.443 369.953 213.639 370.254 193.481C354.317 190.81 338.725 184.565 326.018 177.156C301.165 162.727 279.327 143.085 262.098 120.041C250.899 135.505 236.039 148.771 217.776 159.668C197.36 171.858 173.109 180.559 147.696 184.823C98.5933 193.136 48.6287 186.675 0.300921 180.43C-0.517465 180.343 -1.07741 179.568 -0.991267 178.793C-0.905121 177.974 -0.129808 177.415 0.645504 177.501C48.758 183.703 98.5072 190.121 147.223 181.894C196.283 173.624 236.728 150.451 260.246 117.5C252.148 106.344 245.127 94.413 239.356 81.8788C237.073 76.9254 234.747 71.1967 235.651 65.2957C236.685 58.7486 241.725 53.9675 249.176 52.46C257.662 50.7801 268.99 53.623 274.288 62.2806C284.324 78.8206 274.46 99.8402 269.765 108.153C267.956 111.341 266.018 114.442 263.907 117.457C281.007 140.501 302.759 160.185 327.526 174.572C339.845 181.722 354.963 187.838 370.34 190.466C370.857 179.568 373.226 168.929 377.577 159.152C383.908 145.024 393.514 135.031 404.713 130.982C416.988 126.588 434.088 130.594 440.032 143.559C446.106 156.869 438.094 172.073 428.058 180.559C412.595 193.653 392.738 196.539 373.183 193.825C372.968 213.251 378.869 233.237 390.412 249.992C407.555 274.845 436.156 292.505 468.934 298.406C490.643 302.326 519.588 300.129 537.765 283.374C530.959 280.273 524.628 275.492 521.009 268.255C516.702 259.684 519.76 249.045 525.015 242.972C529.71 237.501 535.87 235.477 541.9 237.415C546.767 239.009 550.342 242.584 552.237 247.796C555.166 255.721 553.831 266.403 548.964 274.372C547.241 277.214 545.216 279.842 542.934 282.297C548.964 284.451 555.08 285.441 559.689 285.915C600.436 289.964 642.647 273.467 669.783 242.799C693.129 216.439 704.802 180.3 701.916 145.282C692.095 141.922 682.447 138.046 673.014 133.652C658.929 127.105 651.951 119.18 652.253 110.092C652.425 104.751 655.526 99.9694 660.738 96.9543C667.414 93.0778 676.244 92.7762 682.705 96.179C692.138 101.175 698.728 111.771 702.26 127.622C703.38 132.705 704.199 137.874 704.715 143.042C740.595 155.103 778.715 160.185 816.576 157.816C830.273 156.955 847.287 154.844 860.726 146.144C852.24 139.683 845.607 132.705 840.524 124.995C835.399 117.199 833.331 109.962 834.365 103.544C835.614 95.8775 841.601 90.1057 850.431 88.1244C860.941 85.7554 872.011 89.5027 877.352 97.2128C887.862 112.461 880.324 134.471 866.713 145.454C866.411 145.713 866.11 145.928 865.808 146.144C872.571 150.882 880.453 155.404 889.584 159.755C955.874 191.284 1094.53 172.117 1161.93 143.042C1162.67 142.698 1163.57 143.042 1163.87 143.818C1164.22 144.55 1163.83 145.454 1163.1 145.756C1094.91 175.175 955.357 194.299 888.292 162.425C878.601 157.816 870.331 153.035 863.267 147.996C849.139 157.558 831.178 159.884 816.791 160.745C778.973 163.071 740.897 158.075 705.017 146.187C707.558 181.593 695.67 217.989 672.066 244.651C644.284 276.008 601.125 292.893 559.43 288.758C554.348 288.241 547.456 287.121 540.737 284.494C533.673 291.256 524.541 296.339 513.773 299.44C505.632 301.981 496.716 303.187 487.585 303.187ZM537.42 239.741C533.759 239.741 530.184 241.55 527.212 244.996C522.603 250.337 519.89 259.641 523.594 267.049C527.083 273.984 533.285 278.421 539.962 281.263C542.331 278.765 544.484 276.008 546.379 272.907C550.73 265.8 551.979 255.936 549.395 248.916C548.275 245.9 545.906 241.938 540.909 240.301C539.789 239.913 538.583 239.741 537.42 239.741ZM373.269 190.983C392.178 193.653 411.346 190.939 426.163 178.405C435.38 170.609 442.832 156.783 437.362 144.894C432.107 133.394 416.73 129.905 405.703 133.868C391.618 138.95 383.736 152.691 380.247 160.444C376.069 169.92 373.743 180.343 373.269 190.983ZM856.677 90.5795C854.695 90.5795 852.8 90.7949 851.034 91.1825C843.453 92.9055 838.285 97.7727 837.251 104.191C836.346 109.876 838.242 116.38 842.98 123.53C848.019 131.197 854.652 138.089 863.267 144.55C863.784 144.162 864.301 143.775 864.818 143.344C877.438 133.179 884.502 112.977 874.897 99.108C870.675 92.9916 863.353 90.5795 856.677 90.5795ZM672.626 96.8682C669.051 96.8682 665.347 97.7727 662.202 99.6248C657.809 102.166 655.354 105.957 655.182 110.307C654.923 118.06 661.341 125.081 674.22 131.068C683.136 135.246 692.31 138.95 701.571 142.181C701.054 137.572 700.322 132.963 699.288 128.441C695.929 113.451 689.855 103.544 681.241 98.9357C678.742 97.5573 675.727 96.8682 672.626 96.8682ZM253.914 55.0013C252.45 55.0013 251.071 55.1305 249.736 55.389C243.448 56.6381 239.399 60.4285 238.537 65.7695C237.762 70.8521 239.916 76.107 242.026 80.6728C247.583 92.6901 254.302 104.191 262.055 114.959C263.864 112.288 265.587 109.532 267.181 106.732C271.617 98.8926 281.007 79.036 271.746 63.8743C268.042 57.758 260.547 55.0013 253.914 55.0013Z" fill="white"/>
<g filter="url(#filter0_d_301_101)">
<path d="M1043.27 218.377C1049.86 226.862 1049.56 239.655 1048.65 249.863C1048.01 257.013 1046.5 264.12 1044.17 270.926C1042.45 276.008 1039.87 285.571 1034.44 287.983C1031.94 289.059 1028.93 288.327 1026.69 286.734C1024.45 285.14 1022.81 282.857 1021.26 280.617C1015.83 272.864 1010.32 265.068 1006.92 256.238C1003.51 247.408 1002.05 232.203 1005.36 223.33C1010.53 209.461 1032.46 204.378 1043.27 218.377Z" fill="#EFC25E"/>
</g>
<path d="M1038.14 214.716L1027.03 175.045L1017.94 175.692L1011.22 216.611L1038.14 214.716Z" fill="white"/>
<g filter="url(#filter1_d_301_101)">
<path d="M912.112 218.291C914.265 228.844 908.321 240.172 903.023 248.916C899.276 255.075 894.796 260.761 889.714 265.843C885.923 269.634 879.376 277.085 873.432 276.827C870.675 276.698 868.306 274.673 867.014 272.261C865.722 269.849 865.248 267.092 864.818 264.379C863.353 255.032 861.889 245.599 862.75 236.166C863.568 226.733 868.996 212.433 875.93 205.972C886.699 195.807 908.58 200.976 912.112 218.291Z" fill="#EFC25E"/>
</g>
<path d="M909.14 212.735L916.677 172.246L908.235 168.8L884.114 202.569L909.14 212.735Z" fill="white"/>
<g filter="url(#filter2_d_301_101)">
<path d="M775.355 205.929C780.481 215.405 778.069 227.982 775.527 237.846C773.718 244.824 771.091 251.543 767.688 257.875C765.147 262.57 761.055 271.658 755.283 273.079C752.613 273.769 749.77 272.519 747.831 270.581C745.893 268.643 744.644 266.145 743.481 263.646C739.389 255.118 735.254 246.503 733.316 237.243C731.378 227.982 732.454 212.734 737.149 204.55C744.515 191.801 766.956 190.422 775.355 205.929Z" fill="#EFC25E"/>
</g>
<path d="M770.919 201.492L766.396 160.573L757.307 159.711L743.998 198.994L770.919 201.492Z" fill="white"/>
<g filter="url(#filter3_d_301_101)">
<path d="M618.699 232.289C608.146 230.179 600.005 220.315 594.018 212.045C589.797 206.23 586.308 199.856 583.638 193.179C581.656 188.226 577.306 179.267 579.847 173.926C581.01 171.47 583.81 170.049 586.566 169.791C589.28 169.532 592.037 170.178 594.707 170.867C603.882 173.15 613.142 175.476 621.499 179.913C629.855 184.349 640.924 194.902 644.198 203.775C649.281 217.602 636.014 235.778 618.699 232.289Z" fill="#EFC25E"/>
</g>
<path d="M624.944 231.729L659.317 254.429L665.778 247.968L644.069 212.648L624.944 231.729Z" fill="white"/>
<g filter="url(#filter4_d_301_101)">
<path d="M499.215 347.811C504.771 357.028 503.048 369.692 500.981 379.685C499.516 386.749 497.233 393.597 494.132 400.101C491.849 404.925 488.188 414.186 482.502 415.909C479.875 416.727 476.989 415.608 474.921 413.755C472.854 411.946 471.519 409.448 470.227 407.036C465.704 398.723 461.138 390.324 458.769 381.192C456.4 372.061 456.659 356.77 460.966 348.328C467.685 335.233 490.04 332.692 499.215 347.811Z" fill="#EFC25E"/>
</g>
<path d="M494.563 343.59L487.972 302.886L478.884 302.498L467.556 342.427L494.563 343.59Z" fill="white"/>
<g filter="url(#filter5_d_301_101)">
<path d="M369.694 297.76C366.636 308.055 356.04 315.291 347.253 320.46C341.051 324.121 334.418 327.05 327.526 329.117C322.4 330.668 313.097 334.157 308.014 331.142C305.645 329.72 304.525 326.835 304.482 324.078C304.482 321.321 305.386 318.694 306.291 316.066C309.392 307.15 312.58 298.105 317.748 290.18C322.917 282.254 334.461 272.218 343.592 269.763C357.849 265.973 374.734 280.833 369.694 297.76Z" fill="#EFC25E"/>
</g>
<path d="M369.694 291.472L395.409 259.339L389.594 252.318L352.422 270.711L369.694 291.472Z" fill="white"/>
<g filter="url(#filter6_d_301_101)">
<path d="M227.984 203.086C236.857 209.159 240.519 221.435 242.758 231.385C244.352 238.406 245.084 245.599 244.955 252.792C244.869 258.133 245.343 268.083 240.906 272.003C238.839 273.812 235.738 274.027 233.11 273.209C230.483 272.39 228.243 270.71 226.046 269.03C218.508 263.345 210.884 257.573 204.897 250.208C198.953 242.885 192.88 228.8 193.354 219.367C194.129 204.636 213.426 193.093 227.984 203.086Z" fill="#EFC25E"/>
</g>
<path d="M222.04 201.147L199.255 166.818L190.812 170.221L196.972 211.227L222.04 201.147Z" fill="white"/>
<g filter="url(#filter7_d_301_101)">
<path d="M320.333 116.983C320.16 106.215 328.043 96.1359 334.848 88.555C339.629 83.1709 345.1 78.3898 351.044 74.341C355.48 71.3259 363.276 65.1664 369.048 66.5017C371.719 67.1478 373.7 69.5599 374.518 72.1443C375.38 74.7717 375.294 77.5714 375.208 80.285C374.949 89.718 374.648 99.2802 372.106 108.412C369.565 117.5 361.64 130.594 353.671 135.677C341.223 143.688 320.634 134.643 320.333 116.983Z" fill="#EFC25E"/>
</g>
<path d="M322.228 122.97L307.454 161.434L315.121 166.345L344.97 137.529L322.228 122.97Z" fill="white"/>
<path d="M2071.42 303.187C2077.79 303.187 2084.25 302.628 2090.63 301.465C2124.09 295.391 2153.43 277.258 2171 251.801C2182.97 234.443 2189.05 213.639 2188.75 193.481C2204.68 190.81 2220.28 184.565 2232.98 177.156C2257.83 162.727 2279.67 143.085 2296.9 120.041C2308.1 135.505 2322.96 148.771 2341.22 159.668C2361.64 171.858 2385.89 180.559 2411.3 184.823C2460.41 193.136 2510.37 186.675 2558.7 180.43C2559.52 180.343 2560.08 179.568 2559.99 178.793C2559.91 177.974 2559.13 177.415 2558.35 177.501C2510.24 183.703 2460.49 190.121 2411.78 181.894C2362.72 173.624 2322.27 150.451 2298.75 117.5C2306.85 106.344 2313.87 94.413 2319.64 81.8788C2321.93 76.9254 2324.25 71.1967 2323.35 65.2957C2322.31 58.7486 2317.28 53.9675 2309.82 52.46C2301.34 50.7801 2290.01 53.623 2284.71 62.2806C2274.68 78.8206 2284.54 99.8402 2289.23 108.153C2291.04 111.341 2292.98 114.442 2295.09 117.457C2277.99 140.501 2256.24 160.185 2231.47 174.572C2219.16 181.722 2204.04 187.838 2188.66 190.466C2188.14 179.568 2185.77 168.929 2181.42 159.152C2175.09 145.024 2165.49 135.031 2154.29 130.982C2142.01 126.588 2124.91 130.594 2118.97 143.559C2112.89 156.869 2120.91 172.073 2130.94 180.559C2146.41 193.653 2166.26 196.539 2185.82 193.825C2186.03 213.251 2180.13 233.237 2168.59 249.992C2151.44 274.845 2122.84 292.505 2090.07 298.406C2068.36 302.326 2039.41 300.129 2021.24 283.374C2028.04 280.273 2034.37 275.492 2037.99 268.255C2042.3 259.684 2039.24 249.045 2033.98 242.972C2029.29 237.501 2023.13 235.477 2017.1 237.415C2012.23 239.009 2008.66 242.584 2006.76 247.796C2003.83 255.721 2005.17 266.403 2010.04 274.372C2011.76 277.214 2013.78 279.842 2016.07 282.297C2010.04 284.451 2003.92 285.441 1999.31 285.915C1958.56 289.964 1916.35 273.467 1889.22 242.799C1865.87 216.439 1854.2 180.3 1857.08 145.282C1866.9 141.922 1876.55 138.046 1885.99 133.652C1900.07 127.105 1907.05 119.18 1906.75 110.092C1906.58 104.751 1903.47 99.9694 1898.26 96.9543C1891.59 93.0778 1882.76 92.7762 1876.29 96.179C1866.86 101.175 1860.27 111.771 1856.74 127.622C1855.62 132.705 1854.8 137.874 1854.28 143.042C1818.4 155.103 1780.29 160.185 1742.42 157.816C1728.73 156.955 1711.71 154.844 1698.27 146.144C1706.76 139.683 1713.39 132.705 1718.48 124.995C1723.6 117.199 1725.67 109.962 1724.64 103.544C1723.39 95.8775 1717.4 90.1057 1708.57 88.1244C1698.06 85.7554 1686.99 89.5027 1681.65 97.2128C1671.14 112.461 1678.68 134.471 1692.29 145.454C1692.59 145.713 1692.89 145.928 1693.19 146.144C1686.43 150.882 1678.55 155.404 1669.42 159.755C1603.13 191.284 1464.47 172.117 1397.07 143.042C1396.33 142.698 1395.43 143.042 1395.13 143.818C1394.78 144.55 1395.17 145.454 1395.9 145.756C1464.09 175.175 1603.64 194.299 1670.71 162.425C1680.4 157.816 1688.67 153.035 1695.73 147.996C1709.86 157.558 1727.82 159.884 1742.21 160.745C1780.03 163.071 1818.1 158.075 1853.98 146.187C1851.44 181.593 1863.33 217.989 1886.93 244.651C1914.72 276.008 1957.87 292.893 1999.57 288.758C2004.65 288.241 2011.54 287.121 2018.26 284.494C2025.33 291.256 2034.46 296.339 2045.23 299.44C2053.37 301.981 2062.28 303.187 2071.42 303.187ZM2021.58 239.741C2025.24 239.741 2028.82 241.55 2031.79 244.996C2036.4 250.337 2039.11 259.641 2035.41 267.049C2031.92 273.984 2025.71 278.421 2019.04 281.263C2016.67 278.765 2014.52 276.008 2012.62 272.907C2008.27 265.8 2007.02 255.936 2009.61 248.916C2010.73 245.9 2013.09 241.938 2018.09 240.301C2019.21 239.913 2020.42 239.741 2021.58 239.741ZM2185.73 190.983C2166.82 193.653 2147.65 190.939 2132.84 178.405C2123.62 170.609 2116.17 156.783 2121.64 144.894C2126.89 133.394 2142.27 129.905 2153.3 133.868C2167.38 138.95 2175.26 152.691 2178.75 160.444C2182.93 169.92 2185.26 180.343 2185.73 190.983ZM1702.32 90.5795C1704.3 90.5795 1706.2 90.7949 1707.97 91.1825C1715.55 92.9055 1720.72 97.7727 1721.75 104.191C1722.65 109.876 1720.76 116.38 1716.02 123.53C1710.98 131.197 1704.35 138.089 1695.73 144.55C1695.22 144.162 1694.7 143.775 1694.18 143.344C1681.56 133.179 1674.5 112.977 1684.1 99.108C1688.32 92.9916 1695.65 90.5795 1702.32 90.5795ZM1886.37 96.8682C1889.95 96.8682 1893.65 97.7727 1896.8 99.6248C1901.19 102.166 1903.65 105.957 1903.82 110.307C1904.08 118.06 1897.66 125.081 1884.78 131.068C1875.86 135.246 1866.69 138.95 1857.43 142.181C1857.95 137.572 1858.68 132.963 1859.71 128.441C1863.07 113.451 1869.14 103.544 1877.76 98.9357C1880.26 97.5573 1883.27 96.8682 1886.37 96.8682ZM2305.09 55.0013C2306.55 55.0013 2307.93 55.1305 2309.26 55.389C2315.55 56.6381 2319.6 60.4285 2320.46 65.7695C2321.24 70.8521 2319.08 76.107 2316.97 80.6728C2311.42 92.6901 2304.7 104.191 2296.94 114.959C2295.14 112.288 2293.41 109.532 2291.82 106.732C2287.38 98.8926 2277.99 79.036 2287.25 63.8743C2290.96 57.758 2298.45 55.0013 2305.09 55.0013Z" fill="white"/>
<g filter="url(#filter8_d_301_101)">
<path d="M1515.73 218.377C1509.14 226.862 1509.44 239.655 1510.35 249.863C1510.99 257.013 1512.5 264.12 1514.83 270.926C1516.55 276.008 1519.13 285.571 1524.56 287.983C1527.06 289.059 1530.07 288.327 1532.31 286.734C1534.55 285.14 1536.19 282.857 1537.74 280.617C1543.17 272.864 1548.68 265.068 1552.08 256.238C1555.49 247.408 1556.95 232.203 1553.64 223.33C1548.47 209.461 1526.54 204.378 1515.73 218.377Z" fill="#EFC25E"/>
</g>
<path d="M1520.86 214.716L1531.97 175.045L1541.06 175.692L1547.78 216.611L1520.86 214.716Z" fill="white"/>
<g filter="url(#filter9_d_301_101)">
<path d="M1646.89 218.291C1644.73 228.844 1650.68 240.172 1655.98 248.916C1659.72 255.075 1664.2 260.761 1669.29 265.843C1673.08 269.634 1679.62 277.085 1685.57 276.827C1688.32 276.698 1690.69 274.673 1691.99 272.261C1693.28 269.849 1693.75 267.092 1694.18 264.379C1695.65 255.032 1697.11 245.599 1696.25 236.166C1695.43 226.733 1690 212.433 1683.07 205.972C1672.3 195.807 1650.42 200.976 1646.89 218.291Z" fill="#EFC25E"/>
</g>
<path d="M1649.86 212.735L1642.32 172.246L1650.77 168.8L1674.89 202.569L1649.86 212.735Z" fill="white"/>
<g filter="url(#filter10_d_301_101)">
<path d="M1783.64 205.929C1778.52 215.405 1780.93 227.982 1783.47 237.846C1785.28 244.824 1787.91 251.543 1791.31 257.875C1793.85 262.57 1797.95 271.658 1803.72 273.079C1806.39 273.769 1809.23 272.519 1811.17 270.581C1813.11 268.643 1814.36 266.145 1815.52 263.646C1819.61 255.118 1823.75 246.503 1825.68 237.243C1827.62 227.982 1826.55 212.734 1821.85 204.55C1814.49 191.801 1792.04 190.422 1783.64 205.929Z" fill="#EFC25E"/>
</g>
<path d="M1788.08 201.492L1792.6 160.573L1801.69 159.711L1815 198.994L1788.08 201.492Z" fill="white"/>
<g filter="url(#filter11_d_301_101)">
<path d="M1940.3 232.289C1950.85 230.179 1958.99 220.315 1964.98 212.045C1969.2 206.23 1972.69 199.856 1975.36 193.179C1977.34 188.226 1981.69 179.267 1979.15 173.926C1977.99 171.47 1975.19 170.049 1972.43 169.791C1969.72 169.532 1966.96 170.178 1964.29 170.867C1955.12 173.15 1945.86 175.476 1937.5 179.913C1929.15 184.349 1918.08 194.902 1914.8 203.775C1909.72 217.602 1922.99 235.778 1940.3 232.289Z" fill="#EFC25E"/>
</g>
<path d="M1934.06 231.729L1899.68 254.429L1893.22 247.968L1914.93 212.648L1934.06 231.729Z" fill="white"/>
<g filter="url(#filter12_d_301_101)">
<path d="M2059.79 347.811C2054.23 357.028 2055.95 369.692 2058.02 379.685C2059.48 386.749 2061.77 393.597 2064.87 400.101C2067.15 404.925 2070.81 414.186 2076.5 415.909C2079.13 416.727 2082.01 415.608 2084.08 413.755C2086.15 411.946 2087.48 409.448 2088.77 407.036C2093.3 398.723 2097.86 390.324 2100.23 381.192C2102.6 372.061 2102.34 356.77 2098.03 348.328C2091.31 335.233 2068.96 332.692 2059.79 347.811Z" fill="#EFC25E"/>
</g>
<path d="M2064.44 343.59L2071.03 302.886L2080.12 302.498L2091.44 342.427L2064.44 343.59Z" fill="white"/>
<g filter="url(#filter13_d_301_101)">
<path d="M2189.31 297.76C2192.36 308.055 2202.96 315.291 2211.75 320.46C2217.95 324.121 2224.58 327.05 2231.47 329.117C2236.6 330.668 2245.9 334.157 2250.99 331.142C2253.36 329.72 2254.47 326.835 2254.52 324.078C2254.52 321.321 2253.61 318.694 2252.71 316.066C2249.61 307.15 2246.42 298.105 2241.25 290.18C2236.08 282.254 2224.54 272.218 2215.41 269.763C2201.15 265.973 2184.27 280.833 2189.31 297.76Z" fill="#EFC25E"/>
</g>
<path d="M2189.31 291.472L2163.59 259.339L2169.41 252.318L2206.58 270.711L2189.31 291.472Z" fill="white"/>
<g filter="url(#filter14_d_301_101)">
<path d="M2331.02 203.086C2322.14 209.159 2318.48 221.435 2316.24 231.385C2314.65 238.406 2313.92 245.599 2314.04 252.792C2314.13 258.133 2313.66 268.083 2318.09 272.003C2320.16 273.812 2323.26 274.027 2325.89 273.209C2328.52 272.39 2330.76 270.71 2332.95 269.03C2340.49 263.345 2348.12 257.573 2354.1 250.208C2360.05 242.885 2366.12 228.8 2365.65 219.367C2364.87 204.636 2345.57 193.093 2331.02 203.086Z" fill="#EFC25E"/>
</g>
<path d="M2336.96 201.148L2359.75 166.819L2368.19 170.222L2362.03 211.227L2336.96 201.148Z" fill="white"/>
<g filter="url(#filter15_d_301_101)">
<path d="M2238.67 116.983C2238.84 106.215 2230.96 96.1359 2224.15 88.555C2219.37 83.1709 2213.9 78.3898 2207.96 74.341C2203.52 71.3259 2195.72 65.1664 2189.95 66.5017C2187.28 67.1478 2185.3 69.5599 2184.48 72.1443C2183.62 74.7717 2183.71 77.5714 2183.79 80.285C2184.05 89.718 2184.35 99.2802 2186.89 108.412C2189.43 117.5 2197.36 130.594 2205.33 135.677C2217.78 143.688 2238.37 134.643 2238.67 116.983Z" fill="#EFC25E"/>
</g>
<path d="M2236.77 122.97L2251.55 161.434L2243.88 166.345L2214.03 137.529L2236.77 122.97Z" fill="white"/>
<defs>
<filter id="filter0_d_301_101" x="933.497" y="144.071" width="185.637" height="218.42" filterUnits="userSpaceOnUse" color-interpolation-filters="sRGB">
<feFlood flood-opacity="0" result="BackgroundImageFix"/>
<feColorMatrix in="SourceAlpha" type="matrix" values="0 0 0 0 0 0 0 0 0 0 0 0 0 0 0 0 0 0 127 0" result="hardAlpha"/>
<feOffset dy="4"/>
<feGaussianBlur stdDeviation="35"/>
<feComposite in2="hardAlpha" operator="out"/>
<feColorMatrix type="matrix" values="0 0 0 0 1 0 0 0 0 1 0 0 0 0 1 0 0 0 1 0"/>
<feBlend mode="normal" in2="BackgroundImageFix" result="effect1_dropShadow_301_101"/>
<feBlend mode="normal" in="SourceGraphic" in2="effect1_dropShadow_301_101" result="shape"/>
</filter>
<filter id="filter1_d_301_101" x="792.493" y="134.795" width="190.071" height="216.038" filterUnits="userSpaceOnUse" color-interpolation-filters="sRGB">
<feFlood flood-opacity="0" result="BackgroundImageFix"/>
<feColorMatrix in="SourceAlpha" type="matrix" values="0 0 0 0 0 0 0 0 0 0 0 0 0 0 0 0 0 0 127 0" result="hardAlpha"/>
<feOffset dy="4"/>
<feGaussianBlur stdDeviation="35"/>
<feComposite in2="hardAlpha" operator="out"/>
<feColorMatrix type="matrix" values="0 0 0 0 1 0 0 0 0 1 0 0 0 0 1 0 0 0 1 0"/>
<feBlend mode="normal" in2="BackgroundImageFix" result="effect1_dropShadow_301_101"/>
<feBlend mode="normal" in="SourceGraphic" in2="effect1_dropShadow_301_101" result="shape"/>
</filter>
<filter id="filter2_d_301_101" x="662.401" y="128.644" width="185.975" height="218.627" filterUnits="userSpaceOnUse" color-interpolation-filters="sRGB">
<feFlood flood-opacity="0" result="BackgroundImageFix"/>
<feColorMatrix in="SourceAlpha" type="matrix" values="0 0 0 0 0 0 0 0 0 0 0 0 0 0 0 0 0 0 127 0" result="hardAlpha"/>
<feOffset dy="4"/>
<feGaussianBlur stdDeviation="35"/>
<feComposite in2="hardAlpha" operator="out"/>
<feColorMatrix type="matrix" values="0 0 0 0 1 0 0 0 0 1 0 0 0 0 1 0 0 0 1 0"/>
<feBlend mode="normal" in2="BackgroundImageFix" result="effect1_dropShadow_301_101"/>
<feBlend mode="normal" in="SourceGraphic" in2="effect1_dropShadow_301_101" result="shape"/>
</filter>
<filter id="filter3_d_301_101" x="509.072" y="103.732" width="206.224" height="202.993" filterUnits="userSpaceOnUse" color-interpolation-filters="sRGB">
<feFlood flood-opacity="0" result="BackgroundImageFix"/>
<feColorMatrix in="SourceAlpha" type="matrix" values="0 0 0 0 0 0 0 0 0 0 0 0 0 0 0 0 0 0 127 0" result="hardAlpha"/>
<feOffset dy="4"/>
<feGaussianBlur stdDeviation="35"/>
<feComposite in2="hardAlpha" operator="out"/>
<feColorMatrix type="matrix" values="0 0 0 0 1 0 0 0 0 1 0 0 0 0 1 0 0 0 1 0"/>
<feBlend mode="normal" in2="BackgroundImageFix" result="effect1_dropShadow_301_101"/>
<feBlend mode="normal" in="SourceGraphic" in2="effect1_dropShadow_301_101" result="shape"/>
</filter>
<filter id="filter4_d_301_101" x="387.278" y="271.458" width="185.678" height="218.722" filterUnits="userSpaceOnUse" color-interpolation-filters="sRGB">
<feFlood flood-opacity="0" result="BackgroundImageFix"/>
<feColorMatrix in="SourceAlpha" type="matrix" values="0 0 0 0 0 0 0 0 0 0 0 0 0 0 0 0 0 0 127 0" result="hardAlpha"/>
<feOffset dy="4"/>
<feGaussianBlur stdDeviation="35"/>
<feComposite in2="hardAlpha" operator="out"/>
<feColorMatrix type="matrix" values="0 0 0 0 1 0 0 0 0 1 0 0 0 0 1 0 0 0 1 0"/>
<feBlend mode="normal" in2="BackgroundImageFix" result="effect1_dropShadow_301_101"/>
<feBlend mode="normal" in="SourceGraphic" in2="effect1_dropShadow_301_101" result="shape"/>
</filter>
<filter id="filter5_d_301_101" x="234.482" y="203.167" width="206.123" height="203.164" filterUnits="userSpaceOnUse" color-interpolation-filters="sRGB">
<feFlood flood-opacity="0" result="BackgroundImageFix"/>
<feColorMatrix in="SourceAlpha" type="matrix" values="0 0 0 0 0 0 0 0 0 0 0 0 0 0 0 0 0 0 127 0" result="hardAlpha"/>
<feOffset dy="4"/>
<feGaussianBlur stdDeviation="35"/>
<feComposite in2="hardAlpha" operator="out"/>
<feColorMatrix type="matrix" values="0 0 0 0 1 0 0 0 0 1 0 0 0 0 1 0 0 0 1 0"/>
<feBlend mode="normal" in2="BackgroundImageFix" result="effect1_dropShadow_301_101"/>
<feBlend mode="normal" in="SourceGraphic" in2="effect1_dropShadow_301_101" result="shape"/>
</filter>
<filter id="filter6_d_301_101" x="123.328" y="133.336" width="191.642" height="214.328" filterUnits="userSpaceOnUse" color-interpolation-filters="sRGB">
<feFlood flood-opacity="0" result="BackgroundImageFix"/>
<feColorMatrix in="SourceAlpha" type="matrix" values="0 0 0 0 0 0 0 0 0 0 0 0 0 0 0 0 0 0 127 0" result="hardAlpha"/>
<feOffset dy="4"/>
<feGaussianBlur stdDeviation="35"/>
<feComposite in2="hardAlpha" operator="out"/>
<feColorMatrix type="matrix" values="0 0 0 0 1 0 0 0 0 1 0 0 0 0 1 0 0 0 1 0"/>
<feBlend mode="normal" in2="BackgroundImageFix" result="effect1_dropShadow_301_101"/>
<feBlend mode="normal" in="SourceGraphic" in2="effect1_dropShadow_301_101" result="shape"/>
</filter>
<filter id="filter7_d_301_101" x="250.33" y="0.314941" width="194.93" height="212.304" filterUnits="userSpaceOnUse" color-interpolation-filters="sRGB">
<feFlood flood-opacity="0" result="BackgroundImageFix"/>
<feColorMatrix in="SourceAlpha" type="matrix" values="0 0 0 0 0 0 0 0 0 0 0 0 0 0 0 0 0 0 127 0" result="hardAlpha"/>
<feOffset dy="4"/>
<feGaussianBlur stdDeviation="35"/>
<feComposite in2="hardAlpha" operator="out"/>
<feColorMatrix type="matrix" values="0 0 0 0 1 0 0 0 0 1 0 0 0 0 1 0 0 0 1 0"/>
<feBlend mode="normal" in2="BackgroundImageFix" result="effect1_dropShadow_301_101"/>
<feBlend mode="normal" in="SourceGraphic" in2="effect1_dropShadow_301_101" result="shape"/>
</filter>
<filter id="filter8_d_301_101" x="1439.87" y="144.071" width="185.637" height="218.42" filterUnits="userSpaceOnUse" color-interpolation-filters="sRGB">
<feFlood flood-opacity="0" result="BackgroundImageFix"/>
<feColorMatrix in="SourceAlpha" type="matrix" values="0 0 0 0 0 0 0 0 0 0 0 0 0 0 0 0 0 0 127 0" result="hardAlpha"/>
<feOffset dy="4"/>
<feGaussianBlur stdDeviation="35"/>
<feComposite in2="hardAlpha" operator="out"/>
<feColorMatrix type="matrix" values="0 0 0 0 1 0 0 0 0 1 0 0 0 0 1 0 0 0 1 0"/>
<feBlend mode="normal" in2="BackgroundImageFix" result="effect1_dropShadow_301_101"/>
<feBlend mode="normal" in="SourceGraphic" in2="effect1_dropShadow_301_101" result="shape"/>
</filter>
<filter id="filter9_d_301_101" x="1576.44" y="134.795" width="190.071" height="216.038" filterUnits="userSpaceOnUse" color-interpolation-filters="sRGB">
<feFlood flood-opacity="0" result="BackgroundImageFix"/>
<feColorMatrix in="SourceAlpha" type="matrix" values="0 0 0 0 0 0 0 0 0 0 0 0 0 0 0 0 0 0 127 0" result="hardAlpha"/>
<feOffset dy="4"/>
<feGaussianBlur stdDeviation="35"/>
<feComposite in2="hardAlpha" operator="out"/>
<feColorMatrix type="matrix" values="0 0 0 0 1 0 0 0 0 1 0 0 0 0 1 0 0 0 1 0"/>
<feBlend mode="normal" in2="BackgroundImageFix" result="effect1_dropShadow_301_101"/>
<feBlend mode="normal" in="SourceGraphic" in2="effect1_dropShadow_301_101" result="shape"/>
</filter>
<filter id="filter10_d_301_101" x="1710.62" y="128.644" width="185.975" height="218.627" filterUnits="userSpaceOnUse" color-interpolation-filters="sRGB">
<feFlood flood-opacity="0" result="BackgroundImageFix"/>
<feColorMatrix in="SourceAlpha" type="matrix" values="0 0 0 0 0 0 0 0 0 0 0 0 0 0 0 0 0 0 127 0" result="hardAlpha"/>
<feOffset dy="4"/>
<feGaussianBlur stdDeviation="35"/>
<feComposite in2="hardAlpha" operator="out"/>
<feColorMatrix type="matrix" values="0 0 0 0 1 0 0 0 0 1 0 0 0 0 1 0 0 0 1 0"/>
<feBlend mode="normal" in2="BackgroundImageFix" result="effect1_dropShadow_301_101"/>
<feBlend mode="normal" in="SourceGraphic" in2="effect1_dropShadow_301_101" result="shape"/>
</filter>
<filter id="filter11_d_301_101" x="1843.7" y="103.732" width="206.224" height="202.993" filterUnits="userSpaceOnUse" color-interpolation-filters="sRGB">
<feFlood flood-opacity="0" result="BackgroundImageFix"/>
<feColorMatrix in="SourceAlpha" type="matrix" values="0 0 0 0 0 0 0 0 0 0 0 0 0 0 0 0 0 0 127 0" result="hardAlpha"/>
<feOffset dy="4"/>
<feGaussianBlur stdDeviation="35"/>
<feComposite in2="hardAlpha" operator="out"/>
<feColorMatrix type="matrix" values="0 0 0 0 1 0 0 0 0 1 0 0 0 0 1 0 0 0 1 0"/>
<feBlend mode="normal" in2="BackgroundImageFix" result="effect1_dropShadow_301_101"/>
<feBlend mode="normal" in="SourceGraphic" in2="effect1_dropShadow_301_101" result="shape"/>
</filter>
<filter id="filter12_d_301_101" x="1986.04" y="271.458" width="185.678" height="218.722" filterUnits="userSpaceOnUse" color-interpolation-filters="sRGB">
<feFlood flood-opacity="0" result="BackgroundImageFix"/>
<feColorMatrix in="SourceAlpha" type="matrix" values="0 0 0 0 0 0 0 0 0 0 0 0 0 0 0 0 0 0 127 0" result="hardAlpha"/>
<feOffset dy="4"/>
<feGaussianBlur stdDeviation="35"/>
<feComposite in2="hardAlpha" operator="out"/>
<feColorMatrix type="matrix" values="0 0 0 0 1 0 0 0 0 1 0 0 0 0 1 0 0 0 1 0"/>
<feBlend mode="normal" in2="BackgroundImageFix" result="effect1_dropShadow_301_101"/>
<feBlend mode="normal" in="SourceGraphic" in2="effect1_dropShadow_301_101" result="shape"/>
</filter>
<filter id="filter13_d_301_101" x="2118.4" y="203.167" width="206.123" height="203.164" filterUnits="userSpaceOnUse" color-interpolation-filters="sRGB">
<feFlood flood-opacity="0" result="BackgroundImageFix"/>
<feColorMatrix in="SourceAlpha" type="matrix" values="0 0 0 0 0 0 0 0 0 0 0 0 0 0 0 0 0 0 127 0" result="hardAlpha"/>
<feOffset dy="4"/>
<feGaussianBlur stdDeviation="35"/>
<feComposite in2="hardAlpha" operator="out"/>
<feColorMatrix type="matrix" values="0 0 0 0 1 0 0 0 0 1 0 0 0 0 1 0 0 0 1 0"/>
<feBlend mode="normal" in2="BackgroundImageFix" result="effect1_dropShadow_301_101"/>
<feBlend mode="normal" in="SourceGraphic" in2="effect1_dropShadow_301_101" result="shape"/>
</filter>
<filter id="filter14_d_301_101" x="2244.03" y="133.336" width="191.642" height="214.328" filterUnits="userSpaceOnUse" color-interpolation-filters="sRGB">
<feFlood flood-opacity="0" result="BackgroundImageFix"/>
<feColorMatrix in="SourceAlpha" type="matrix" values="0 0 0 0 0 0 0 0 0 0 0 0 0 0 0 0 0 0 127 0" result="hardAlpha"/>
<feOffset dy="4"/>
<feGaussianBlur stdDeviation="35"/>
<feComposite in2="hardAlpha" operator="out"/>
<feColorMatrix type="matrix" values="0 0 0 0 1 0 0 0 0 1 0 0 0 0 1 0 0 0 1 0"/>
<feBlend mode="normal" in2="BackgroundImageFix" result="effect1_dropShadow_301_101"/>
<feBlend mode="normal" in="SourceGraphic" in2="effect1_dropShadow_301_101" result="shape"/>
</filter>
<filter id="filter15_d_301_101" x="2113.74" y="0.314941" width="194.93" height="212.304" filterUnits="userSpaceOnUse" color-interpolation-filters="sRGB">
<feFlood flood-opacity="0" result="BackgroundImageFix"/>
<feColorMatrix in="SourceAlpha" type="matrix" values="0 0 0 0 0 0 0 0 0 0 0 0 0 0 0 0 0 0 127 0" result="hardAlpha"/>
<feOffset dy="4"/>
<feGaussianBlur stdDeviation="35"/>
<feComposite in2="hardAlpha" operator="out"/>
<feColorMatrix type="matrix" values="0 0 0 0 1 0 0 0 0 1 0 0 0 0 1 0 0 0 1 0"/>
<feBlend mode="normal" in2="BackgroundImageFix" result="effect1_dropShadow_301_101"/>
<feBlend mode="normal" in="SourceGraphic" in2="effect1_dropShadow_301_101" result="shape"/>
</filter>
</defs>
</svg>
