<svg width="2452" height="9958" viewBox="0 0 2452 9958" fill="none" xmlns="http://www.w3.org/2000/svg">
<path d="M2318.02 1018.34L2301.66 1019.18L2297.41 1035.03L2291.49 1019.73L2275.12 1020.56L2287.87 1010.26L2281.99 994.925L2295.74 1003.87L2308.53 993.541L2304.28 1009.39L2318.02 1018.34Z" fill="#EFC25E"/>
<path d="M2171.02 151.341L2154.66 152.18L2150.41 168.031L2144.49 152.725L2128.12 153.565L2140.87 143.26L2134.99 127.925L2148.74 136.874L2161.53 126.541L2157.28 142.392L2171.02 151.341Z" fill="#EFC25E"/>
<path d="M2156.02 2341.34L2139.66 2342.18L2135.41 2358.03L2129.49 2342.73L2113.12 2343.56L2125.87 2333.26L2119.99 2317.93L2133.74 2326.87L2146.53 2316.54L2142.28 2332.39L2156.02 2341.34Z" fill="#EFC25E"/>
<path d="M127.023 6937.34L110.658 6938.18L106.411 6954.03L100.488 6938.73L84.1237 6939.56L96.8659 6929.26L90.9937 6913.93L104.736 6922.87L117.528 6912.54L113.281 6928.39L127.023 6937.34Z" fill="#EFC25E"/>
<path d="M171.023 7426.34L154.658 7427.18L150.411 7443.03L144.488 7427.73L128.124 7428.56L140.866 7418.26L134.994 7402.93L148.736 7411.87L161.528 7401.54L157.281 7417.39L171.023 7426.34Z" fill="#EFC25E"/>
<path d="M2387.02 7919.34L2370.66 7920.18L2366.41 7936.03L2360.49 7920.73L2344.12 7921.57L2356.87 7911.26L2350.99 7895.93L2364.74 7904.87L2377.53 7894.54L2373.28 7910.39L2387.02 7919.34Z" fill="#EFC25E"/>
<path d="M2298.02 9006.34L2281.66 9007.18L2277.41 9023.03L2271.49 9007.73L2255.12 9008.57L2267.87 8998.26L2261.99 8982.93L2275.74 8991.87L2288.53 8981.54L2284.28 8997.39L2298.02 9006.34Z" fill="#EFC25E"/>
<path d="M69.1496 7963.43L64.9682 7947.59L48.5827 7946.69L62.3463 7937.75L58.1649 7921.9L70.8661 7932.26L84.6684 7923.36L78.7318 7938.65L91.4717 7949.05L75.0862 7948.15L69.1496 7963.43Z" fill="#EFC25E"/>
<path d="M2385.29 4850.72L2376.34 4864.44L2386.66 4877.21L2370.8 4872.99L2361.85 4886.71L2361.01 4870.35L2345.16 4866.07L2360.48 4860.22L2359.65 4843.8L2369.97 4856.56L2385.29 4850.72Z" fill="#EFC25E"/>
<path d="M82.2918 8419.72L73.3404 8433.44L83.657 8446.21L67.7968 8441.99L58.8453 8455.71L58.0123 8439.35L42.1583 8435.07L57.4802 8429.22L56.6533 8412.8L66.9699 8425.56L82.2918 8419.72Z" fill="#EFC25E"/>
<path d="M283.292 9620.72L274.34 9634.44L284.657 9647.21L268.797 9642.99L259.845 9656.71L259.012 9640.35L243.158 9636.07L258.48 9630.22L257.653 9613.8L267.97 9626.56L283.292 9620.72Z" fill="#EFC25E"/>
<path d="M45.2918 4714.72L36.3404 4728.44L46.657 4741.21L30.7968 4736.99L21.8453 4750.71L21.0123 4734.35L5.15825 4730.07L20.4802 4724.22L19.6533 4707.8L29.9699 4720.56L45.2918 4714.72Z" fill="#EFC25E"/>
<path d="M160.662 4425.9L141.369 4455.48L163.604 4482.98L129.422 4473.89L110.129 4503.47L108.334 4468.2L74.1647 4458.98L107.187 4446.39L105.405 4410.99L127.639 4438.49L160.662 4425.9Z" fill="#EFC25E"/>
<path d="M2415.29 5983.72L2406.34 5997.44L2416.66 6010.21L2400.8 6005.99L2391.85 6019.71L2391.01 6003.35L2375.16 5999.07L2390.48 5993.22L2389.65 5976.8L2399.97 5989.56L2415.29 5983.72Z" fill="#EFC25E"/>
<path d="M60.2918 5891.72L51.3404 5905.44L61.657 5918.21L45.7968 5913.99L36.8453 5927.71L36.0123 5911.35L20.1583 5907.07L35.4802 5901.22L34.6533 5884.8L44.9699 5897.56L60.2918 5891.72Z" fill="#EFC25E"/>
<path d="M1795.02 2016.34L1778.66 2017.18L1774.41 2033.03L1768.49 2017.73L1752.12 2018.56L1764.87 2008.26L1758.99 1992.93L1772.74 2001.87L1785.53 1991.54L1781.28 2007.39L1795.02 2016.34Z" fill="#EFC25E"/>
<path d="M2409.56 6752.52L2385.97 6753.73L2379.84 6776.58L2371.3 6754.51L2347.71 6755.72L2366.08 6740.87L2357.61 6718.75L2377.43 6731.66L2395.87 6716.76L2389.75 6739.61L2409.56 6752.52Z" fill="#EFC25E"/>
<path d="M240.677 1060.64L256.148 1074.61L274.222 1064.17L265.784 1083.26L281.254 1097.22L260.529 1095.03L252.02 1114.1L247.71 1093.69L226.913 1091.48L244.987 1081.05L240.677 1060.64Z" fill="#EFC25E"/>
<path d="M154.757 3164.32L156.464 3197.61L188.71 3206.25L157.574 3218.3L159.281 3251.59L138.319 3225.67L107.123 3237.61L125.328 3209.66L104.306 3183.63L136.552 3192.27L154.757 3164.32Z" fill="#EFC25E"/>
<path d="M2424.86 1301.08L2425.93 1321.89L2446.08 1327.29L2426.62 1334.82L2427.69 1355.63L2414.58 1339.43L2395.08 1346.9L2406.46 1329.42L2393.32 1313.15L2413.48 1318.55L2424.86 1301.08Z" fill="#EFC25E"/>
<path d="M1754.86 1569.08L1755.93 1589.89L1776.08 1595.29L1756.62 1602.82L1757.69 1623.63L1744.58 1607.43L1725.08 1614.9L1736.46 1597.42L1723.32 1581.15L1743.48 1586.55L1754.86 1569.08Z" fill="#EFC25E"/>
<path d="M2319.54 2698.76L2311.54 2718L2327.41 2731.56L2306.6 2729.97L2298.6 2749.22L2293.75 2728.95L2272.93 2727.28L2290.73 2716.42L2285.88 2696.07L2301.75 2709.63L2319.54 2698.76Z" fill="#EFC25E"/>
<path d="M2237.63 4053.42L2217.83 4059.92L2217.91 4080.79L2205.53 4063.98L2185.73 4070.48L2197.92 4053.58L2185.59 4036.72L2205.45 4043.11L2217.69 4026.16L2217.77 4047.03L2237.63 4053.42Z" fill="#EFC25E"/>
<path d="M2419.85 8757.31L2393.36 8766.01L2393.48 8793.92L2376.91 8771.45L2350.43 8780.14L2366.74 8757.53L2350.24 8734.98L2376.8 8743.53L2393.18 8720.85L2393.29 8748.77L2419.85 8757.31Z" fill="#EFC25E"/>
<path d="M95.4487 9020.11L83.8281 9045.45L104.389 9064.33L76.6424 9061.21L65.0218 9086.55L59.5151 9059.22L31.7641 9056L56.0813 9042.33L50.5704 9014.9L71.1316 9033.78L95.4487 9020.11Z" fill="#EFC25E"/>
<path d="M2329.08 6384.34L2309.28 6390.84L2309.36 6411.71L2296.98 6394.9L2277.18 6401.4L2289.37 6384.5L2277.04 6367.65L2296.89 6374.04L2309.14 6357.08L2309.22 6377.95L2329.08 6384.34Z" fill="#EFC25E"/>
<path d="M719.858 1716.08L720.925 1736.89L741.084 1742.29L721.619 1749.82L722.686 1770.63L709.581 1754.43L690.079 1761.9L701.46 1744.42L688.318 1728.15L708.477 1733.55L719.858 1716.08Z" fill="#EFC25E"/>
<path d="M172.408 1520.06L183.738 1537.55L203.897 1532.15L190.806 1548.41L202.136 1565.9L182.684 1558.41L169.529 1574.63L170.647 1553.81L151.131 1546.29L171.29 1540.89L172.408 1520.06Z" fill="#EFC25E"/>
<path d="M2317.41 518.063L2328.74 535.553L2348.9 530.151L2335.81 546.406L2347.14 563.896L2327.68 556.415L2314.53 572.633L2315.65 551.808L2296.13 544.29L2316.29 538.888L2317.41 518.063Z" fill="#EFC25E"/>
<path d="M377.972 2512L374.934 2524.89L386.281 2531.76L373.065 2532.91L370.027 2545.8L364.901 2533.59L351.673 2534.69L361.718 2526.04L356.58 2513.78L367.927 2520.65L377.972 2512Z" fill="#EFC25E"/>
<path d="M288.972 4019L285.934 4031.89L297.281 4038.76L284.065 4039.91L281.027 4052.8L275.901 4040.59L262.673 4041.69L272.718 4033.04L267.58 4020.78L278.927 4027.65L288.972 4019Z" fill="#EFC25E"/>
<path d="M145.738 2745.67L137.465 2780.78L168.369 2799.49L132.374 2802.61L124.101 2837.73L110.14 2804.46L74.115 2807.46L101.471 2783.9L87.4789 2750.51L118.382 2769.22L145.738 2745.67Z" fill="#EFC25E"/>
<path d="M89.9272 3810.11L114.4 3836.61L147.199 3821.47L129.649 3853.05L154.122 3879.55L118.739 3872.51L101.069 3904.05L96.8495 3868.19L61.347 3861.11L94.1464 3845.96L89.9272 3810.11Z" fill="#EFC25E"/>
<path d="M2351.86 3293.73L2370.68 3322.78L2404.17 3313.81L2382.42 3340.81L2401.24 3369.86L2368.93 3357.43L2347.08 3384.37L2348.94 3349.78L2316.52 3337.29L2350.01 3328.32L2351.86 3293.73Z" fill="#EFC25E"/>
<path d="M122.864 8694.73L141.683 8723.78L175.167 8714.81L153.422 8741.81L172.242 8770.86L139.933 8758.43L118.082 8785.37L119.939 8750.78L87.5234 8738.29L121.007 8729.32L122.864 8694.73Z" fill="#EFC25E"/>
<path d="M88.8638 7608.73L107.683 7637.78L141.167 7628.81L119.422 7655.81L138.242 7684.86L105.933 7672.43L84.0821 7699.37L85.9387 7664.78L53.5234 7652.29L87.0072 7643.32L88.8638 7608.73Z" fill="#EFC25E"/>
<path d="M155.801 6597.89L159.65 6621.89L183.7 6625.62L162.077 6636.79L165.926 6660.79L148.699 6643.65L127.025 6654.75L138.027 6633.06L120.749 6615.85L144.799 6619.58L155.801 6597.89Z" fill="#EFC25E"/>
<path d="M2262.86 8415.73L2281.68 8444.78L2315.17 8435.81L2293.42 8462.81L2312.24 8491.86L2279.93 8479.43L2258.08 8506.37L2259.94 8471.78L2227.52 8459.29L2261.01 8450.32L2262.86 8415.73Z" fill="#EFC25E"/>
<path d="M125.864 9862.73L144.683 9891.78L178.167 9882.81L156.422 9909.81L175.242 9938.86L142.933 9926.43L121.082 9953.37L122.939 9918.78L90.5234 9906.29L124.007 9897.32L125.864 9862.73Z" fill="#EFC25E"/>
<path d="M2311.86 9653.73L2330.68 9682.78L2364.17 9673.81L2342.42 9700.81L2361.24 9729.86L2328.93 9717.43L2307.08 9744.37L2308.94 9709.78L2276.52 9697.29L2310.01 9688.32L2311.86 9653.73Z" fill="#EFC25E"/>
<path d="M2347.86 7407.73L2366.68 7436.78L2400.17 7427.81L2378.42 7454.81L2397.24 7483.86L2364.93 7471.43L2343.08 7498.37L2344.94 7463.78L2312.52 7451.29L2346.01 7442.32L2347.86 7407.73Z" fill="#EFC25E"/>
<path d="M84.8638 6233.73L103.683 6262.78L137.167 6253.81L115.422 6280.81L134.242 6309.86L101.933 6297.43L80.0821 6324.37L81.9387 6289.78L49.5234 6277.29L83.0072 6268.32L84.8638 6233.73Z" fill="#EFC25E"/>
<path d="M2317.87 5530.92L2316.56 5565.51L2349.11 5577.42L2315.79 5587.01L2314.49 5621.59L2295.2 5592.85L2261.83 5602.32L2283.24 5575.09L2263.9 5546.23L2296.46 5558.15L2317.87 5530.92Z" fill="#EFC25E"/>
<path d="M151.312 5439.61L150.003 5474.2L182.556 5486.11L149.24 5495.7L147.931 5530.29L128.644 5501.54L95.2765 5511.01L116.687 5483.78L97.3483 5454.93L129.901 5466.84L151.312 5439.61Z" fill="#EFC25E"/>
<path d="M2217.86 1832.73L2236.68 1861.78L2270.17 1852.81L2248.42 1879.81L2267.24 1908.86L2234.93 1896.43L2213.08 1923.37L2214.94 1888.78L2182.52 1876.29L2216.01 1867.32L2217.86 1832.73Z" fill="#EFC25E"/>
<path d="M275.864 2110.73L294.683 2139.78L328.167 2130.81L306.422 2157.81L325.242 2186.86L292.933 2174.43L271.082 2201.37L272.939 2166.78L240.523 2154.29L274.007 2145.32L275.864 2110.73Z" fill="#EFC25E"/>
<path d="M92.9717 562L89.934 574.892L101.281 581.763L88.0648 582.91L85.0271 595.802L79.9008 583.588L66.6735 584.689L76.7178 576.039L71.5803 563.78L82.9273 570.65L92.9717 562Z" fill="#EFC25E"/>
<path d="M137.779 18.0387L157.876 35.3921L180.609 21.5959L170.392 46.1485L190.489 63.5019L164.027 61.2871L153.719 85.8174L147.66 59.9448L121.106 57.7076L143.839 43.9113L137.779 18.0387Z" fill="#EFC25E"/>
</svg>
