<svg width="0" height="0" class="hidden">
  <symbol fill="none" xmlns="http://www.w3.org/2000/svg" viewBox="0 0 187 77" id="step1">
    <path fill-rule="evenodd" clip-rule="evenodd" d="M105.203 1.44985C130.069 3.59557 146.107 13.09 161.604 21.4777C175.011 28.7348 184.51 36.5927 186.119 45.2473C187.921 54.9378 188.205 65.716 170.981 71.9011C153.634 78.13 126.43 77.0619 102.049 75.4359C79.4391 73.928 58.8632 69.7508 41.6256 63.2743C22.1515 55.9576 2.22873 47.5609 0.652187 37.3395C-1.00959 26.5655 13.9331 17.1289 33.4736 10.4212C52.8779 3.76015 78.5993 -0.845851 105.203 1.44985Z" fill="#D93F3F"></path>
  </symbol>
  <symbol fill="none" xmlns="http://www.w3.org/2000/svg" viewBox="0 0 182 75" id="step2">
    <path fill-rule="evenodd" clip-rule="evenodd" d="M87.9407 0.574043C107.234 0.77238 122.803 6.10014 136.971 10.7944C149.343 14.8937 156.323 20.2996 163.8 25.7093C171.527 31.2993 182.764 36.7092 181.384 42.927C179.976 49.2705 167.313 54.3352 156.336 59.3392C144.854 64.5733 133.532 70.1883 116.236 72.6253C98.2171 75.1643 77.7628 75.1338 59.3322 73.0075C41.1547 70.9103 25.0984 66.5913 14.5396 60.8927C4.62919 55.5439 4.63176 48.885 2.80521 42.4993C1.05287 36.373 -1.93354 30.1709 4.10261 24.4044C10.3734 18.4137 23.0747 13.7448 37.0677 9.76738C52.2529 5.45111 68.5616 0.374825 87.9407 0.574043Z" fill="#D93F3F"></path>
  </symbol>
  <symbol fill="none" xmlns="http://www.w3.org/2000/svg" viewBox="0 0 188 71" id="step3">
    <path fill-rule="evenodd" clip-rule="evenodd" d="M86.2966 0.567314C61.3407 0.48475 44.5572 8.09409 28.4074 14.7037C14.4345 20.4225 4.30522 27.0405 1.96827 35.0806C-0.648403 44.0831 -1.84482 54.2419 14.7919 61.5469C31.5464 68.9036 58.7405 70.2026 83.1694 70.7351C105.823 71.2288 126.677 69.0281 144.4 64.3719C164.422 59.1115 184.983 52.8689 187.42 43.3458C189.988 33.3077 175.901 23.1244 157.001 15.1292C138.233 7.18965 112.997 0.655649 86.2966 0.567314Z" fill="#D93F3F"></path>
  </symbol>
  <symbol fill="none" xmlns="http://www.w3.org/2000/svg" viewBox="0 0 182 75" id="step4">
    <path fill-rule="evenodd" clip-rule="evenodd" d="M94.06 0.573066C74.7666 0.771403 59.1974 6.09917 45.03 10.7934C32.658 14.8928 25.678 20.2986 18.2007 25.7083C10.4742 31.2984 -0.763687 36.7083 0.616364 42.9261C2.02429 49.2695 14.6878 54.3343 25.6649 59.3383C37.1469 64.5724 48.469 70.1873 65.7647 72.6244C83.7836 75.1633 104.238 75.1328 122.669 73.0065C140.846 70.9094 156.902 66.5904 167.461 60.8917C177.372 55.5429 177.369 48.884 179.196 42.4983C180.948 36.372 183.934 30.1699 177.898 24.4034C171.627 18.4127 158.926 13.7438 144.933 9.7664C129.748 5.45013 113.439 0.373849 94.06 0.573066Z" fill="#D93F3F"></path>
  </symbol>
  <symbol fill="none" xmlns="http://www.w3.org/2000/svg" viewBox="0 0 189 71" id="step5">
    <path fill-rule="evenodd" clip-rule="evenodd" d="M101.22 0.594022C126.252 -0.30081 143.331 6.74312 159.742 12.8105C173.941 18.0601 184.313 24.3318 186.914 32.2757C189.825 41.1705 191.349 51.2651 174.893 59.0935C158.32 66.9772 131.082 69.1583 106.593 70.4848C83.8834 71.7149 62.8938 70.1985 44.9669 66.1309C24.714 61.5355 3.88961 55.9779 1.14151 46.5579C-1.75518 36.6285 12.0524 26.012 30.7569 17.4214C49.3311 8.89068 74.4383 1.5514 101.22 0.594022Z" fill="#D93F3F"></path>
  </symbol>
  <symbol fill="none" xmlns="http://www.w3.org/2000/svg" viewBox="0 0 188 75" id="step6">
    <path fill-rule="evenodd" clip-rule="evenodd" d="M102.087 0.785172C127.043 1.08577 143.74 9.36793 159.814 16.5864C173.722 22.8319 183.775 29.9657 186.02 38.4776C188.534 48.0083 189.615 58.7359 172.895 66.1781C156.057 73.673 128.848 74.62 104.413 74.8018C81.754 74.9705 60.9255 72.3266 43.2561 67.1429C23.2942 61.2867 2.8049 54.3866 0.476643 44.3098C-1.9775 33.6882 12.2263 23.1722 31.2171 15.0375C50.0756 6.95947 75.3858 0.463567 102.087 0.785172Z" fill="#D93F3F"></path>
  </symbol>
</svg>