<svg width="2560" height="492" viewBox="0 0 2560 492" fill="none" xmlns="http://www.w3.org/2000/svg">
<path d="M1321.96 129.879C1320.43 128.756 1318 128.037 1315.67 128.082C1313.1 128.127 1310.68 128.936 1308.97 130.284V114.2H1301.02V166.673H1308.97V139.269C1308.97 137.382 1310.59 135.27 1313.55 135.136C1314.86 135.091 1316.7 135.675 1317.64 137.067C1318.63 138.505 1318.59 140.482 1318.59 142.593L1318.54 166.673H1326.49V142.324C1326.49 135.136 1325.59 132.575 1321.96 129.879Z" fill="white"/>
<path d="M1257.26 147.894C1257.26 153.016 1257.08 154.453 1257.04 154.903C1256.77 157.778 1255.56 160.788 1252.23 160.788C1248.95 160.788 1247.6 157.553 1247.47 154.768C1247.42 154.768 1247.24 153.016 1247.24 147.894C1247.24 142.773 1247.42 140.616 1247.47 140.616C1247.47 137.696 1249 134.821 1252.23 134.821C1255.51 134.821 1256.99 137.696 1257.04 140.571C1257.04 140.616 1257.26 142.773 1257.26 147.894ZM1264.94 141.695C1263.82 130.508 1257.44 128.082 1252.23 128.082C1244.82 128.082 1240.33 132.799 1239.52 141.695C1239.43 142.413 1239.34 143.716 1239.29 147.894C1239.25 150.949 1239.47 153.465 1239.52 154.094C1240.01 162.405 1244.77 167.482 1252.23 167.482C1259.69 167.482 1264.45 162.315 1264.99 154.094C1265.03 153.51 1265.17 150.949 1265.17 147.894C1265.17 146.502 1265.08 142.773 1264.94 141.695Z" fill="white"/>
<path d="M1339.79 143.177C1339.84 141.425 1339.84 141.066 1339.88 140.571C1340.11 137.427 1341.5 134.821 1344.73 134.821C1348.55 134.776 1349.45 138.505 1349.58 140.571C1349.67 141.695 1349.72 142.413 1349.72 143.177H1339.79ZM1349.63 153.69C1349.63 153.69 1349.63 154.274 1349.54 154.992C1349.31 156.834 1348.6 160.788 1344.73 160.788C1341.41 160.788 1340.15 157.778 1339.93 154.813C1339.88 153.959 1339.75 153.016 1339.75 149.781H1357.49C1357.49 149.781 1357.49 147.13 1357.45 145.558C1357.45 144.929 1357.4 143.896 1357.27 141.695C1357 138.325 1355.74 134.641 1353.81 132.305C1351.61 129.52 1348.46 128.082 1344.73 128.082C1337.54 128.082 1333.05 132.754 1332.2 141.695C1332.11 142.503 1331.97 143.626 1331.97 147.894C1331.97 150.949 1332.15 153.51 1332.2 154.094C1332.65 162.27 1337.5 167.482 1344.73 167.482C1351.92 167.482 1356.73 162.405 1357.27 153.69H1349.63Z" fill="white"/>
<path d="M1214.13 87.4244H1343.43L1392.85 145.289L1343.43 202.344H1214.13L1164.49 145.109L1214.13 87.4244ZM1346.53 81H1210.99L1156 144.884L1211.03 208.364H1346.53L1401.34 145.109L1346.53 81Z" fill="white"/>
<path d="M1215.75 121.343H1219.48C1223.57 121.343 1225.81 123.5 1225.9 127.363C1225.9 127.678 1225.95 127.992 1225.95 128.576C1225.95 129.295 1225.95 129.52 1225.9 129.834C1225.68 132.125 1224.65 136.124 1219.88 136.124H1215.75V121.343ZM1234.57 163.394L1233.77 150.545C1233.41 144.794 1231.92 141.38 1228.91 139.628C1231.07 138.325 1233.86 135.135 1233.81 128.442C1233.81 118.288 1227.48 114.694 1220.02 114.604H1207.89V166.673H1215.71L1215.75 142.863H1220.11C1222.62 142.863 1225.45 145.064 1225.9 151.264L1226.71 163.439C1226.8 165.191 1227.12 166.673 1227.12 166.673H1234.98C1234.98 166.673 1234.62 165.236 1234.57 163.394Z" fill="white"/>
<path d="M1288.17 153.33C1288.17 153.914 1288.13 154.408 1288.08 154.768C1287.86 157.688 1286.87 160.788 1283.27 160.788C1279.99 160.788 1278.69 157.418 1278.42 154.948C1278.29 153.465 1278.33 152.297 1278.29 147.894C1278.24 142.773 1278.42 141.425 1278.51 140.616C1278.78 137.337 1280.04 134.821 1283.27 134.821C1286.64 134.776 1288.04 137.696 1288.08 140.571C1288.08 140.616 1288.17 141.29 1288.22 142.818H1296.08C1296.08 142.279 1296.03 141.829 1296.03 141.605C1295.13 130.733 1288.49 128.082 1283.27 128.082C1275.86 128.082 1271.37 132.799 1270.56 141.695C1270.47 142.413 1270.38 143.716 1270.34 147.894C1270.29 150.949 1270.52 153.465 1270.56 154.094C1271.05 162.405 1275.82 167.482 1283.27 167.482C1291 167.527 1295.27 162.81 1296.03 154.094C1296.03 153.779 1296.08 153.555 1296.08 153.33H1288.17Z" fill="white"/>
<path d="M485.585 303.187C479.21 303.187 472.749 302.628 466.374 301.465C432.907 295.391 403.574 277.258 386 251.801C374.026 234.443 367.953 213.639 368.254 193.481C352.317 190.81 336.725 184.565 324.018 177.156C299.165 162.727 277.327 143.085 260.098 120.041C248.899 135.505 234.039 148.771 215.776 159.668C195.36 171.858 171.109 180.559 145.696 184.823C96.5933 193.136 46.6287 186.675 -1.69908 180.43C-2.51746 180.343 -3.07741 179.568 -2.99127 178.793C-2.90512 177.974 -2.12981 177.415 -1.3545 177.501C46.758 183.703 96.5072 190.121 145.223 181.894C194.283 173.624 234.728 150.451 258.246 117.5C250.148 106.344 243.127 94.413 237.356 81.8788C235.073 76.9254 232.747 71.1967 233.651 65.2957C234.685 58.7486 239.725 53.9675 247.176 52.46C255.662 50.7801 266.99 53.623 272.288 62.2806C282.324 78.8206 272.46 99.8402 267.765 108.153C265.956 111.341 264.018 114.442 261.907 117.457C279.007 140.501 300.759 160.185 325.526 174.572C337.845 181.722 352.963 187.838 368.34 190.466C368.857 179.568 371.226 168.929 375.577 159.152C381.908 145.024 391.514 135.031 402.713 130.982C414.988 126.588 432.088 130.594 438.032 143.559C444.106 156.869 436.094 172.073 426.058 180.559C410.595 193.653 390.738 196.539 371.183 193.825C370.968 213.251 376.869 233.237 388.412 249.992C405.555 274.845 434.156 292.505 466.934 298.406C488.643 302.326 517.588 300.129 535.765 283.374C528.959 280.273 522.628 275.492 519.009 268.255C514.702 259.684 517.76 249.045 523.015 242.972C527.71 237.501 533.87 235.477 539.9 237.415C544.767 239.009 548.342 242.584 550.237 247.796C553.166 255.721 551.831 266.403 546.964 274.372C545.241 277.214 543.216 279.842 540.934 282.297C546.964 284.451 553.08 285.441 557.689 285.915C598.436 289.964 640.647 273.467 667.783 242.799C691.129 216.439 702.802 180.3 699.916 145.282C690.095 141.922 680.447 138.046 671.014 133.652C656.929 127.105 649.951 119.18 650.253 110.092C650.425 104.751 653.526 99.9694 658.738 96.9543C665.414 93.0778 674.244 92.7762 680.705 96.179C690.138 101.175 696.728 111.771 700.26 127.622C701.38 132.705 702.199 137.874 702.715 143.042C738.595 155.103 776.715 160.185 814.576 157.816C828.273 156.955 845.287 154.844 858.726 146.144C850.24 139.683 843.607 132.705 838.524 124.995C833.399 117.199 831.331 109.962 832.365 103.544C833.614 95.8775 839.601 90.1057 848.431 88.1244C858.941 85.7554 870.011 89.5027 875.352 97.2128C885.862 112.461 878.324 134.471 864.713 145.454C864.411 145.713 864.11 145.928 863.808 146.144C870.571 150.882 878.453 155.404 887.584 159.755C953.874 191.284 1092.53 172.117 1159.93 143.042C1160.67 142.698 1161.57 143.042 1161.87 143.818C1162.22 144.55 1161.83 145.454 1161.1 145.756C1092.91 175.175 953.357 194.299 886.292 162.425C876.601 157.816 868.331 153.035 861.267 147.996C847.139 157.558 829.178 159.884 814.791 160.745C776.973 163.071 738.897 158.075 703.017 146.187C705.558 181.593 693.67 217.989 670.066 244.651C642.284 276.008 599.125 292.893 557.43 288.758C552.348 288.241 545.456 287.121 538.737 284.494C531.673 291.256 522.541 296.339 511.773 299.44C503.632 301.981 494.716 303.187 485.585 303.187ZM535.42 239.741C531.759 239.741 528.184 241.55 525.212 244.996C520.603 250.337 517.89 259.641 521.594 267.049C525.083 273.984 531.285 278.421 537.962 281.263C540.331 278.765 542.484 276.008 544.379 272.907C548.73 265.8 549.979 255.936 547.395 248.916C546.275 245.9 543.906 241.938 538.909 240.301C537.789 239.913 536.583 239.741 535.42 239.741ZM371.269 190.983C390.178 193.653 409.346 190.939 424.163 178.405C433.38 170.609 440.832 156.783 435.362 144.894C430.107 133.394 414.73 129.905 403.703 133.868C389.618 138.95 381.736 152.691 378.247 160.444C374.069 169.92 371.743 180.343 371.269 190.983ZM854.677 90.5795C852.695 90.5795 850.8 90.7949 849.034 91.1825C841.453 92.9055 836.285 97.7727 835.251 104.191C834.346 109.876 836.242 116.38 840.98 123.53C846.019 131.197 852.652 138.089 861.267 144.55C861.784 144.162 862.301 143.775 862.818 143.344C875.438 133.179 882.502 112.977 872.897 99.108C868.675 92.9916 861.353 90.5795 854.677 90.5795ZM670.626 96.8682C667.051 96.8682 663.347 97.7727 660.202 99.6248C655.809 102.166 653.354 105.957 653.182 110.307C652.923 118.06 659.341 125.081 672.22 131.068C681.136 135.246 690.31 138.95 699.571 142.181C699.054 137.572 698.322 132.963 697.288 128.441C693.929 113.451 687.855 103.544 679.241 98.9357C676.742 97.5573 673.727 96.8682 670.626 96.8682ZM251.914 55.0013C250.45 55.0013 249.071 55.1305 247.736 55.389C241.448 56.6381 237.399 60.4285 236.537 65.7695C235.762 70.8521 237.916 76.107 240.026 80.6728C245.583 92.6901 252.302 104.191 260.055 114.959C261.864 112.288 263.587 109.532 265.181 106.732C269.617 98.8926 279.007 79.036 269.746 63.8743C266.042 57.758 258.547 55.0013 251.914 55.0013Z" fill="white"/>
<g filter="url(#filter0_d_129_50230)">
<path d="M1041.27 218.377C1047.86 226.862 1047.56 239.655 1046.65 249.863C1046.01 257.013 1044.5 264.12 1042.17 270.926C1040.45 276.008 1037.87 285.571 1032.44 287.983C1029.94 289.059 1026.93 288.327 1024.69 286.734C1022.45 285.14 1020.81 282.857 1019.26 280.617C1013.83 272.864 1008.32 265.068 1004.92 256.238C1001.51 247.408 1000.05 232.203 1003.36 223.33C1008.53 209.461 1030.46 204.378 1041.27 218.377Z" fill="#EFC25E"/>
</g>
<path d="M1036.14 214.716L1025.03 175.045L1015.94 175.692L1009.22 216.611L1036.14 214.716Z" fill="white"/>
<g filter="url(#filter1_d_129_50230)">
<path d="M910.112 218.291C912.265 228.844 906.321 240.172 901.023 248.916C897.276 255.075 892.796 260.761 887.714 265.843C883.923 269.634 877.376 277.085 871.432 276.827C868.675 276.698 866.306 274.673 865.014 272.261C863.722 269.849 863.248 267.092 862.818 264.379C861.353 255.032 859.889 245.599 860.75 236.166C861.568 226.733 866.996 212.433 873.93 205.972C884.699 195.807 906.58 200.976 910.112 218.291Z" fill="#EFC25E"/>
</g>
<path d="M907.14 212.735L914.677 172.246L906.235 168.8L882.114 202.569L907.14 212.735Z" fill="white"/>
<g filter="url(#filter2_d_129_50230)">
<path d="M773.355 205.929C778.481 215.405 776.069 227.982 773.527 237.846C771.718 244.824 769.091 251.543 765.688 257.875C763.147 262.57 759.055 271.658 753.283 273.079C750.613 273.769 747.77 272.519 745.831 270.581C743.893 268.643 742.644 266.145 741.481 263.646C737.389 255.118 733.254 246.503 731.316 237.243C729.378 227.982 730.454 212.734 735.149 204.55C742.515 191.801 764.956 190.422 773.355 205.929Z" fill="#EFC25E"/>
</g>
<path d="M768.919 201.492L764.396 160.573L755.307 159.711L741.998 198.994L768.919 201.492Z" fill="white"/>
<g filter="url(#filter3_d_129_50230)">
<path d="M616.699 232.289C606.146 230.179 598.005 220.315 592.018 212.045C587.797 206.23 584.308 199.856 581.638 193.179C579.656 188.226 575.306 179.267 577.847 173.926C579.01 171.47 581.81 170.049 584.566 169.791C587.28 169.532 590.037 170.178 592.707 170.867C601.882 173.15 611.142 175.476 619.499 179.913C627.855 184.349 638.924 194.902 642.198 203.775C647.281 217.602 634.014 235.778 616.699 232.289Z" fill="#EFC25E"/>
</g>
<path d="M622.944 231.729L657.317 254.429L663.778 247.968L642.069 212.648L622.944 231.729Z" fill="white"/>
<g filter="url(#filter4_d_129_50230)">
<path d="M497.215 347.811C502.771 357.028 501.048 369.692 498.981 379.685C497.516 386.749 495.233 393.597 492.132 400.101C489.849 404.925 486.188 414.186 480.502 415.909C477.875 416.727 474.989 415.608 472.921 413.755C470.854 411.946 469.519 409.448 468.227 407.036C463.704 398.723 459.138 390.324 456.769 381.192C454.4 372.061 454.659 356.77 458.966 348.328C465.685 335.233 488.04 332.692 497.215 347.811Z" fill="#EFC25E"/>
</g>
<path d="M492.563 343.59L485.972 302.886L476.884 302.498L465.556 342.427L492.563 343.59Z" fill="white"/>
<g filter="url(#filter5_d_129_50230)">
<path d="M367.694 297.76C364.636 308.055 354.04 315.291 345.253 320.46C339.051 324.121 332.418 327.05 325.526 329.117C320.4 330.668 311.097 334.157 306.014 331.142C303.645 329.72 302.525 326.835 302.482 324.078C302.482 321.321 303.386 318.694 304.291 316.066C307.392 307.15 310.58 298.105 315.748 290.18C320.917 282.254 332.461 272.218 341.592 269.763C355.849 265.973 372.734 280.833 367.694 297.76Z" fill="#EFC25E"/>
</g>
<path d="M367.694 291.472L393.409 259.339L387.594 252.318L350.422 270.711L367.694 291.472Z" fill="white"/>
<g filter="url(#filter6_d_129_50230)">
<path d="M225.984 203.086C234.857 209.159 238.519 221.435 240.758 231.385C242.352 238.406 243.084 245.599 242.955 252.792C242.869 258.133 243.343 268.083 238.906 272.003C236.839 273.812 233.738 274.027 231.11 273.209C228.483 272.39 226.243 270.71 224.046 269.03C216.508 263.345 208.884 257.573 202.897 250.208C196.953 242.885 190.88 228.8 191.354 219.367C192.129 204.636 211.426 193.093 225.984 203.086Z" fill="#EFC25E"/>
</g>
<path d="M220.04 201.147L197.255 166.818L188.812 170.221L194.972 211.227L220.04 201.147Z" fill="white"/>
<g filter="url(#filter7_d_129_50230)">
<path d="M318.333 116.983C318.16 106.215 326.043 96.1359 332.848 88.555C337.629 83.1709 343.1 78.3898 349.044 74.341C353.48 71.3259 361.276 65.1664 367.048 66.5017C369.719 67.1478 371.7 69.5599 372.518 72.1443C373.38 74.7717 373.294 77.5714 373.208 80.285C372.949 89.718 372.648 99.2802 370.106 108.412C367.565 117.5 359.64 130.594 351.671 135.677C339.223 143.688 318.634 134.643 318.333 116.983Z" fill="#EFC25E"/>
</g>
<path d="M320.228 122.97L305.454 161.434L313.121 166.345L342.97 137.529L320.228 122.97Z" fill="white"/>
<path d="M2073.42 304.187C2079.79 304.187 2086.25 303.628 2092.63 302.465C2126.09 296.391 2155.43 278.258 2173 252.801C2184.97 235.443 2191.05 214.639 2190.75 194.481C2206.68 191.81 2222.28 185.565 2234.98 178.156C2259.83 163.727 2281.67 144.085 2298.9 121.041C2310.1 136.505 2324.96 149.771 2343.22 160.668C2363.64 172.858 2387.89 181.559 2413.3 185.823C2462.41 194.136 2512.37 187.675 2560.7 181.43C2561.52 181.343 2562.08 180.568 2561.99 179.793C2561.91 178.974 2561.13 178.415 2560.35 178.501C2512.24 184.703 2462.49 191.121 2413.78 182.894C2364.72 174.624 2324.27 151.451 2300.75 118.5C2308.85 107.344 2315.87 95.413 2321.64 82.8788C2323.93 77.9254 2326.25 72.1967 2325.35 66.2957C2324.31 59.7486 2319.28 54.9675 2311.82 53.46C2303.34 51.7801 2292.01 54.623 2286.71 63.2806C2276.68 79.8206 2286.54 100.84 2291.23 109.153C2293.04 112.341 2294.98 115.442 2297.09 118.457C2279.99 141.501 2258.24 161.185 2233.47 175.572C2221.16 182.722 2206.04 188.838 2190.66 191.466C2190.14 180.568 2187.77 169.929 2183.42 160.152C2177.09 146.024 2167.49 136.031 2156.29 131.982C2144.01 127.588 2126.91 131.594 2120.97 144.559C2114.89 157.869 2122.91 173.073 2132.94 181.559C2148.41 194.653 2168.26 197.539 2187.82 194.825C2188.03 214.251 2182.13 234.237 2170.59 250.992C2153.44 275.845 2124.84 293.505 2092.07 299.406C2070.36 303.326 2041.41 301.129 2023.24 284.374C2030.04 281.273 2036.37 276.492 2039.99 269.255C2044.3 260.684 2041.24 250.045 2035.98 243.972C2031.29 238.501 2025.13 236.477 2019.1 238.415C2014.23 240.009 2010.66 243.584 2008.76 248.796C2005.83 256.721 2007.17 267.403 2012.04 275.372C2013.76 278.214 2015.78 280.842 2018.07 283.297C2012.04 285.451 2005.92 286.441 2001.31 286.915C1960.56 290.964 1918.35 274.467 1891.22 243.799C1867.87 217.439 1856.2 181.3 1859.08 146.282C1868.9 142.922 1878.55 139.046 1887.99 134.652C1902.07 128.105 1909.05 120.18 1908.75 111.092C1908.58 105.751 1905.47 100.969 1900.26 97.9543C1893.59 94.0778 1884.76 93.7762 1878.29 97.179C1868.86 102.175 1862.27 112.771 1858.74 128.622C1857.62 133.705 1856.8 138.874 1856.28 144.042C1820.4 156.103 1782.29 161.185 1744.42 158.816C1730.73 157.955 1713.71 155.844 1700.27 147.144C1708.76 140.683 1715.39 133.705 1720.48 125.995C1725.6 118.199 1727.67 110.962 1726.64 104.544C1725.39 96.8775 1719.4 91.1057 1710.57 89.1244C1700.06 86.7554 1688.99 90.5027 1683.65 98.2128C1673.14 113.461 1680.68 135.471 1694.29 146.454C1694.59 146.713 1694.89 146.928 1695.19 147.144C1688.43 151.882 1680.55 156.404 1671.42 160.755C1605.13 192.284 1466.47 173.117 1399.07 144.042C1398.33 143.698 1397.43 144.042 1397.13 144.818C1396.78 145.55 1397.17 146.454 1397.9 146.756C1466.09 176.175 1605.64 195.299 1672.71 163.425C1682.4 158.816 1690.67 154.035 1697.73 148.996C1711.86 158.558 1729.82 160.884 1744.21 161.745C1782.03 164.071 1820.1 159.075 1855.98 147.187C1853.44 182.593 1865.33 218.989 1888.93 245.651C1916.72 277.008 1959.87 293.893 2001.57 289.758C2006.65 289.241 2013.54 288.121 2020.26 285.494C2027.33 292.256 2036.46 297.339 2047.23 300.44C2055.37 302.981 2064.28 304.187 2073.42 304.187ZM2023.58 240.741C2027.24 240.741 2030.82 242.55 2033.79 245.996C2038.4 251.337 2041.11 260.641 2037.41 268.049C2033.92 274.984 2027.71 279.421 2021.04 282.263C2018.67 279.765 2016.52 277.008 2014.62 273.907C2010.27 266.8 2009.02 256.936 2011.61 249.916C2012.73 246.9 2015.09 242.938 2020.09 241.301C2021.21 240.913 2022.42 240.741 2023.58 240.741ZM2187.73 191.983C2168.82 194.653 2149.65 191.939 2134.84 179.405C2125.62 171.609 2118.17 157.783 2123.64 145.894C2128.89 134.394 2144.27 130.905 2155.3 134.868C2169.38 139.95 2177.26 153.691 2180.75 161.444C2184.93 170.92 2187.26 181.343 2187.73 191.983ZM1704.32 91.5795C1706.3 91.5795 1708.2 91.7949 1709.97 92.1825C1717.55 93.9055 1722.72 98.7727 1723.75 105.191C1724.65 110.876 1722.76 117.38 1718.02 124.53C1712.98 132.197 1706.35 139.089 1697.73 145.55C1697.22 145.162 1696.7 144.775 1696.18 144.344C1683.56 134.179 1676.5 113.977 1686.1 100.108C1690.32 93.9916 1697.65 91.5795 1704.32 91.5795ZM1888.37 97.8682C1891.95 97.8682 1895.65 98.7727 1898.8 100.625C1903.19 103.166 1905.65 106.957 1905.82 111.307C1906.08 119.06 1899.66 126.081 1886.78 132.068C1877.86 136.246 1868.69 139.95 1859.43 143.181C1859.95 138.572 1860.68 133.963 1861.71 129.441C1865.07 114.451 1871.14 104.544 1879.76 99.9357C1882.26 98.5573 1885.27 97.8682 1888.37 97.8682ZM2307.09 56.0013C2308.55 56.0013 2309.93 56.1305 2311.26 56.389C2317.55 57.6381 2321.6 61.4285 2322.46 66.7695C2323.24 71.8521 2321.08 77.107 2318.97 81.6728C2313.42 93.6901 2306.7 105.191 2298.94 115.959C2297.14 113.288 2295.41 110.532 2293.82 107.732C2289.38 99.8926 2279.99 80.036 2289.25 64.8743C2292.96 58.758 2300.45 56.0013 2307.09 56.0013Z" fill="white"/>
<g filter="url(#filter8_d_129_50230)">
<path d="M1517.73 219.377C1511.14 227.862 1511.44 240.655 1512.35 250.863C1512.99 258.013 1514.5 265.12 1516.83 271.926C1518.55 277.008 1521.13 286.571 1526.56 288.983C1529.06 290.059 1532.07 289.327 1534.31 287.734C1536.55 286.14 1538.19 283.857 1539.74 281.617C1545.17 273.864 1550.68 266.068 1554.08 257.238C1557.49 248.408 1558.95 233.203 1555.64 224.33C1550.47 210.461 1528.54 205.378 1517.73 219.377Z" fill="#EFC25E"/>
</g>
<path d="M1522.86 215.716L1533.97 176.045L1543.06 176.692L1549.78 217.611L1522.86 215.716Z" fill="white"/>
<g filter="url(#filter9_d_129_50230)">
<path d="M1648.89 219.291C1646.73 229.844 1652.68 241.172 1657.98 249.916C1661.72 256.075 1666.2 261.761 1671.29 266.843C1675.08 270.634 1681.62 278.085 1687.57 277.827C1690.32 277.698 1692.69 275.673 1693.99 273.261C1695.28 270.849 1695.75 268.092 1696.18 265.379C1697.65 256.032 1699.11 246.599 1698.25 237.166C1697.43 227.733 1692 213.433 1685.07 206.972C1674.3 196.807 1652.42 201.976 1648.89 219.291Z" fill="#EFC25E"/>
</g>
<path d="M1651.86 213.735L1644.32 173.246L1652.77 169.8L1676.89 203.569L1651.86 213.735Z" fill="white"/>
<g filter="url(#filter10_d_129_50230)">
<path d="M1785.64 206.929C1780.52 216.405 1782.93 228.982 1785.47 238.846C1787.28 245.824 1789.91 252.543 1793.31 258.875C1795.85 263.57 1799.95 272.658 1805.72 274.079C1808.39 274.769 1811.23 273.519 1813.17 271.581C1815.11 269.643 1816.36 267.145 1817.52 264.646C1821.61 256.118 1825.75 247.503 1827.68 238.243C1829.62 228.982 1828.55 213.734 1823.85 205.55C1816.49 192.801 1794.04 191.422 1785.64 206.929Z" fill="#EFC25E"/>
</g>
<path d="M1790.08 202.492L1794.6 161.573L1803.69 160.711L1817 199.994L1790.08 202.492Z" fill="white"/>
<g filter="url(#filter11_d_129_50230)">
<path d="M1942.3 233.289C1952.85 231.179 1960.99 221.315 1966.98 213.045C1971.2 207.23 1974.69 200.856 1977.36 194.179C1979.34 189.226 1983.69 180.267 1981.15 174.926C1979.99 172.47 1977.19 171.049 1974.43 170.791C1971.72 170.532 1968.96 171.178 1966.29 171.867C1957.12 174.15 1947.86 176.476 1939.5 180.913C1931.15 185.349 1920.08 195.902 1916.8 204.775C1911.72 218.602 1924.99 236.778 1942.3 233.289Z" fill="#EFC25E"/>
</g>
<path d="M1936.06 232.729L1901.68 255.429L1895.22 248.968L1916.93 213.648L1936.06 232.729Z" fill="white"/>
<g filter="url(#filter12_d_129_50230)">
<path d="M2061.79 348.811C2056.23 358.028 2057.95 370.692 2060.02 380.685C2061.48 387.749 2063.77 394.597 2066.87 401.101C2069.15 405.925 2072.81 415.186 2078.5 416.909C2081.13 417.727 2084.01 416.608 2086.08 414.755C2088.15 412.946 2089.48 410.448 2090.77 408.036C2095.3 399.723 2099.86 391.324 2102.23 382.192C2104.6 373.061 2104.34 357.77 2100.03 349.328C2093.31 336.233 2070.96 333.692 2061.79 348.811Z" fill="#EFC25E"/>
</g>
<path d="M2066.44 344.59L2073.03 303.886L2082.12 303.498L2093.44 343.427L2066.44 344.59Z" fill="white"/>
<g filter="url(#filter13_d_129_50230)">
<path d="M2191.31 298.76C2194.36 309.055 2204.96 316.291 2213.75 321.46C2219.95 325.121 2226.58 328.05 2233.47 330.117C2238.6 331.668 2247.9 335.157 2252.99 332.142C2255.36 330.72 2256.47 327.835 2256.52 325.078C2256.52 322.321 2255.61 319.694 2254.71 317.066C2251.61 308.15 2248.42 299.105 2243.25 291.18C2238.08 283.254 2226.54 273.218 2217.41 270.763C2203.15 266.973 2186.27 281.833 2191.31 298.76Z" fill="#EFC25E"/>
</g>
<path d="M2191.31 292.472L2165.59 260.339L2171.41 253.318L2208.58 271.711L2191.31 292.472Z" fill="white"/>
<g filter="url(#filter14_d_129_50230)">
<path d="M2333.02 204.086C2324.14 210.159 2320.48 222.435 2318.24 232.385C2316.65 239.406 2315.92 246.599 2316.04 253.792C2316.13 259.133 2315.66 269.083 2320.09 273.003C2322.16 274.812 2325.26 275.027 2327.89 274.209C2330.52 273.39 2332.76 271.71 2334.95 270.03C2342.49 264.345 2350.12 258.573 2356.1 251.208C2362.05 243.885 2368.12 229.8 2367.65 220.367C2366.87 205.636 2347.57 194.093 2333.02 204.086Z" fill="#EFC25E"/>
</g>
<path d="M2338.96 202.148L2361.75 167.819L2370.19 171.222L2364.03 212.227L2338.96 202.148Z" fill="white"/>
<g filter="url(#filter15_d_129_50230)">
<path d="M2240.67 117.983C2240.84 107.215 2232.96 97.1359 2226.15 89.555C2221.37 84.1709 2215.9 79.3898 2209.96 75.341C2205.52 72.3259 2197.72 66.1664 2191.95 67.5017C2189.28 68.1478 2187.3 70.5599 2186.48 73.1443C2185.62 75.7717 2185.71 78.5714 2185.79 81.285C2186.05 90.718 2186.35 100.28 2188.89 109.412C2191.43 118.5 2199.36 131.594 2207.33 136.677C2219.78 144.688 2240.37 135.643 2240.67 117.983Z" fill="#EFC25E"/>
</g>
<path d="M2238.77 123.97L2253.55 162.434L2245.88 167.345L2216.03 138.529L2238.77 123.97Z" fill="white"/>
<path d="M1162.19 247.443V301H1149.79V257.389H1139.08V247.443H1162.19ZM1211.51 290.901V301H1171.03V292.966L1191.69 273.456C1193.88 271.365 1195.36 269.58 1196.13 268.1C1196.89 266.57 1197.28 265.065 1197.28 263.586C1197.28 261.444 1196.54 259.812 1195.06 258.69C1193.63 257.516 1191.51 256.93 1188.71 256.93C1186.36 256.93 1184.24 257.389 1182.36 258.307C1180.47 259.174 1178.89 260.5 1177.61 262.286L1168.58 256.471C1170.68 253.359 1173.56 250.936 1177.23 249.202C1180.9 247.417 1185.11 246.524 1189.85 246.524C1193.83 246.524 1197.3 247.187 1200.26 248.514C1203.27 249.789 1205.59 251.625 1207.22 254.022C1208.91 256.369 1209.75 259.149 1209.75 262.362C1209.75 265.27 1209.14 267.998 1207.91 270.549C1206.69 273.099 1204.32 276.007 1200.8 279.271L1188.48 290.901H1211.51ZM1234.98 267.565C1242.53 267.565 1248.09 269.07 1251.66 272.079C1255.28 275.088 1257.1 279.118 1257.1 284.168C1257.1 287.432 1256.28 290.416 1254.65 293.119C1253.02 295.772 1250.52 297.914 1247.15 299.546C1243.83 301.128 1239.73 301.918 1234.83 301.918C1231.06 301.918 1227.33 301.434 1223.66 300.464C1220.04 299.444 1216.95 298.016 1214.4 296.18L1219.3 286.692C1221.34 288.223 1223.69 289.421 1226.34 290.289C1228.99 291.105 1231.72 291.513 1234.53 291.513C1237.64 291.513 1240.08 290.901 1241.87 289.676C1243.66 288.452 1244.55 286.744 1244.55 284.55C1244.55 282.255 1243.6 280.521 1241.72 279.347C1239.88 278.174 1236.67 277.588 1232.08 277.588H1218.38L1221.14 247.443H1253.81V257.389H1231.46L1230.62 267.565H1234.98ZM1326.03 259.837V301H1314.09V269.631H1301.08L1300.7 276.899C1300.5 282.306 1299.99 286.795 1299.17 290.365C1298.36 293.936 1297.03 296.741 1295.19 298.781C1293.36 300.821 1290.81 301.842 1287.54 301.842C1285.81 301.842 1283.74 301.536 1281.34 300.923L1281.96 291.13C1282.77 291.232 1283.36 291.283 1283.72 291.283C1285.5 291.283 1286.83 290.646 1287.69 289.37C1288.61 288.044 1289.22 286.386 1289.53 284.397C1289.84 282.357 1290.07 279.679 1290.22 276.364L1290.83 259.837H1326.03ZM1377.52 280.572C1377.52 280.725 1377.44 281.796 1377.29 283.785H1346.15C1346.71 286.335 1348.04 288.35 1350.13 289.829C1352.22 291.309 1354.82 292.048 1357.93 292.048C1360.07 292.048 1361.96 291.742 1363.59 291.13C1365.28 290.467 1366.83 289.447 1368.26 288.07L1374.61 294.956C1370.74 299.393 1365.07 301.612 1357.63 301.612C1352.98 301.612 1348.88 300.719 1345.31 298.934C1341.74 297.098 1338.98 294.573 1337.05 291.36C1335.11 288.146 1334.14 284.499 1334.14 280.419C1334.14 276.389 1335.08 272.768 1336.97 269.554C1338.91 266.29 1341.53 263.765 1344.85 261.98C1348.22 260.143 1351.96 259.225 1356.1 259.225C1360.13 259.225 1363.77 260.092 1367.04 261.827C1370.3 263.561 1372.85 266.06 1374.69 269.325C1376.58 272.538 1377.52 276.287 1377.52 280.572ZM1356.17 268.253C1353.47 268.253 1351.2 269.019 1349.36 270.549C1347.53 272.079 1346.4 274.17 1346 276.823H1366.27C1365.86 274.221 1364.74 272.155 1362.91 270.625C1361.07 269.044 1358.83 268.253 1356.17 268.253ZM1419.83 269.631H1405.91V301H1394.05V269.631H1380.12V259.837H1419.83V269.631Z" fill="#EFC25E"/>
<defs>
<filter id="filter0_d_129_50230" x="931.497" y="144.071" width="185.637" height="218.42" filterUnits="userSpaceOnUse" color-interpolation-filters="sRGB">
<feFlood flood-opacity="0" result="BackgroundImageFix"/>
<feColorMatrix in="SourceAlpha" type="matrix" values="0 0 0 0 0 0 0 0 0 0 0 0 0 0 0 0 0 0 127 0" result="hardAlpha"/>
<feOffset dy="4"/>
<feGaussianBlur stdDeviation="35"/>
<feComposite in2="hardAlpha" operator="out"/>
<feColorMatrix type="matrix" values="0 0 0 0 1 0 0 0 0 1 0 0 0 0 1 0 0 0 1 0"/>
<feBlend mode="normal" in2="BackgroundImageFix" result="effect1_dropShadow_129_50230"/>
<feBlend mode="normal" in="SourceGraphic" in2="effect1_dropShadow_129_50230" result="shape"/>
</filter>
<filter id="filter1_d_129_50230" x="790.493" y="134.795" width="190.071" height="216.038" filterUnits="userSpaceOnUse" color-interpolation-filters="sRGB">
<feFlood flood-opacity="0" result="BackgroundImageFix"/>
<feColorMatrix in="SourceAlpha" type="matrix" values="0 0 0 0 0 0 0 0 0 0 0 0 0 0 0 0 0 0 127 0" result="hardAlpha"/>
<feOffset dy="4"/>
<feGaussianBlur stdDeviation="35"/>
<feComposite in2="hardAlpha" operator="out"/>
<feColorMatrix type="matrix" values="0 0 0 0 1 0 0 0 0 1 0 0 0 0 1 0 0 0 1 0"/>
<feBlend mode="normal" in2="BackgroundImageFix" result="effect1_dropShadow_129_50230"/>
<feBlend mode="normal" in="SourceGraphic" in2="effect1_dropShadow_129_50230" result="shape"/>
</filter>
<filter id="filter2_d_129_50230" x="660.401" y="128.644" width="185.975" height="218.627" filterUnits="userSpaceOnUse" color-interpolation-filters="sRGB">
<feFlood flood-opacity="0" result="BackgroundImageFix"/>
<feColorMatrix in="SourceAlpha" type="matrix" values="0 0 0 0 0 0 0 0 0 0 0 0 0 0 0 0 0 0 127 0" result="hardAlpha"/>
<feOffset dy="4"/>
<feGaussianBlur stdDeviation="35"/>
<feComposite in2="hardAlpha" operator="out"/>
<feColorMatrix type="matrix" values="0 0 0 0 1 0 0 0 0 1 0 0 0 0 1 0 0 0 1 0"/>
<feBlend mode="normal" in2="BackgroundImageFix" result="effect1_dropShadow_129_50230"/>
<feBlend mode="normal" in="SourceGraphic" in2="effect1_dropShadow_129_50230" result="shape"/>
</filter>
<filter id="filter3_d_129_50230" x="507.072" y="103.732" width="206.224" height="202.993" filterUnits="userSpaceOnUse" color-interpolation-filters="sRGB">
<feFlood flood-opacity="0" result="BackgroundImageFix"/>
<feColorMatrix in="SourceAlpha" type="matrix" values="0 0 0 0 0 0 0 0 0 0 0 0 0 0 0 0 0 0 127 0" result="hardAlpha"/>
<feOffset dy="4"/>
<feGaussianBlur stdDeviation="35"/>
<feComposite in2="hardAlpha" operator="out"/>
<feColorMatrix type="matrix" values="0 0 0 0 1 0 0 0 0 1 0 0 0 0 1 0 0 0 1 0"/>
<feBlend mode="normal" in2="BackgroundImageFix" result="effect1_dropShadow_129_50230"/>
<feBlend mode="normal" in="SourceGraphic" in2="effect1_dropShadow_129_50230" result="shape"/>
</filter>
<filter id="filter4_d_129_50230" x="385.278" y="271.458" width="185.678" height="218.722" filterUnits="userSpaceOnUse" color-interpolation-filters="sRGB">
<feFlood flood-opacity="0" result="BackgroundImageFix"/>
<feColorMatrix in="SourceAlpha" type="matrix" values="0 0 0 0 0 0 0 0 0 0 0 0 0 0 0 0 0 0 127 0" result="hardAlpha"/>
<feOffset dy="4"/>
<feGaussianBlur stdDeviation="35"/>
<feComposite in2="hardAlpha" operator="out"/>
<feColorMatrix type="matrix" values="0 0 0 0 1 0 0 0 0 1 0 0 0 0 1 0 0 0 1 0"/>
<feBlend mode="normal" in2="BackgroundImageFix" result="effect1_dropShadow_129_50230"/>
<feBlend mode="normal" in="SourceGraphic" in2="effect1_dropShadow_129_50230" result="shape"/>
</filter>
<filter id="filter5_d_129_50230" x="232.482" y="203.167" width="206.123" height="203.164" filterUnits="userSpaceOnUse" color-interpolation-filters="sRGB">
<feFlood flood-opacity="0" result="BackgroundImageFix"/>
<feColorMatrix in="SourceAlpha" type="matrix" values="0 0 0 0 0 0 0 0 0 0 0 0 0 0 0 0 0 0 127 0" result="hardAlpha"/>
<feOffset dy="4"/>
<feGaussianBlur stdDeviation="35"/>
<feComposite in2="hardAlpha" operator="out"/>
<feColorMatrix type="matrix" values="0 0 0 0 1 0 0 0 0 1 0 0 0 0 1 0 0 0 1 0"/>
<feBlend mode="normal" in2="BackgroundImageFix" result="effect1_dropShadow_129_50230"/>
<feBlend mode="normal" in="SourceGraphic" in2="effect1_dropShadow_129_50230" result="shape"/>
</filter>
<filter id="filter6_d_129_50230" x="121.328" y="133.336" width="191.642" height="214.328" filterUnits="userSpaceOnUse" color-interpolation-filters="sRGB">
<feFlood flood-opacity="0" result="BackgroundImageFix"/>
<feColorMatrix in="SourceAlpha" type="matrix" values="0 0 0 0 0 0 0 0 0 0 0 0 0 0 0 0 0 0 127 0" result="hardAlpha"/>
<feOffset dy="4"/>
<feGaussianBlur stdDeviation="35"/>
<feComposite in2="hardAlpha" operator="out"/>
<feColorMatrix type="matrix" values="0 0 0 0 1 0 0 0 0 1 0 0 0 0 1 0 0 0 1 0"/>
<feBlend mode="normal" in2="BackgroundImageFix" result="effect1_dropShadow_129_50230"/>
<feBlend mode="normal" in="SourceGraphic" in2="effect1_dropShadow_129_50230" result="shape"/>
</filter>
<filter id="filter7_d_129_50230" x="248.33" y="0.314941" width="194.93" height="212.304" filterUnits="userSpaceOnUse" color-interpolation-filters="sRGB">
<feFlood flood-opacity="0" result="BackgroundImageFix"/>
<feColorMatrix in="SourceAlpha" type="matrix" values="0 0 0 0 0 0 0 0 0 0 0 0 0 0 0 0 0 0 127 0" result="hardAlpha"/>
<feOffset dy="4"/>
<feGaussianBlur stdDeviation="35"/>
<feComposite in2="hardAlpha" operator="out"/>
<feColorMatrix type="matrix" values="0 0 0 0 1 0 0 0 0 1 0 0 0 0 1 0 0 0 1 0"/>
<feBlend mode="normal" in2="BackgroundImageFix" result="effect1_dropShadow_129_50230"/>
<feBlend mode="normal" in="SourceGraphic" in2="effect1_dropShadow_129_50230" result="shape"/>
</filter>
<filter id="filter8_d_129_50230" x="1441.87" y="145.071" width="185.637" height="218.42" filterUnits="userSpaceOnUse" color-interpolation-filters="sRGB">
<feFlood flood-opacity="0" result="BackgroundImageFix"/>
<feColorMatrix in="SourceAlpha" type="matrix" values="0 0 0 0 0 0 0 0 0 0 0 0 0 0 0 0 0 0 127 0" result="hardAlpha"/>
<feOffset dy="4"/>
<feGaussianBlur stdDeviation="35"/>
<feComposite in2="hardAlpha" operator="out"/>
<feColorMatrix type="matrix" values="0 0 0 0 1 0 0 0 0 1 0 0 0 0 1 0 0 0 1 0"/>
<feBlend mode="normal" in2="BackgroundImageFix" result="effect1_dropShadow_129_50230"/>
<feBlend mode="normal" in="SourceGraphic" in2="effect1_dropShadow_129_50230" result="shape"/>
</filter>
<filter id="filter9_d_129_50230" x="1578.44" y="135.795" width="190.071" height="216.038" filterUnits="userSpaceOnUse" color-interpolation-filters="sRGB">
<feFlood flood-opacity="0" result="BackgroundImageFix"/>
<feColorMatrix in="SourceAlpha" type="matrix" values="0 0 0 0 0 0 0 0 0 0 0 0 0 0 0 0 0 0 127 0" result="hardAlpha"/>
<feOffset dy="4"/>
<feGaussianBlur stdDeviation="35"/>
<feComposite in2="hardAlpha" operator="out"/>
<feColorMatrix type="matrix" values="0 0 0 0 1 0 0 0 0 1 0 0 0 0 1 0 0 0 1 0"/>
<feBlend mode="normal" in2="BackgroundImageFix" result="effect1_dropShadow_129_50230"/>
<feBlend mode="normal" in="SourceGraphic" in2="effect1_dropShadow_129_50230" result="shape"/>
</filter>
<filter id="filter10_d_129_50230" x="1712.62" y="129.644" width="185.975" height="218.627" filterUnits="userSpaceOnUse" color-interpolation-filters="sRGB">
<feFlood flood-opacity="0" result="BackgroundImageFix"/>
<feColorMatrix in="SourceAlpha" type="matrix" values="0 0 0 0 0 0 0 0 0 0 0 0 0 0 0 0 0 0 127 0" result="hardAlpha"/>
<feOffset dy="4"/>
<feGaussianBlur stdDeviation="35"/>
<feComposite in2="hardAlpha" operator="out"/>
<feColorMatrix type="matrix" values="0 0 0 0 1 0 0 0 0 1 0 0 0 0 1 0 0 0 1 0"/>
<feBlend mode="normal" in2="BackgroundImageFix" result="effect1_dropShadow_129_50230"/>
<feBlend mode="normal" in="SourceGraphic" in2="effect1_dropShadow_129_50230" result="shape"/>
</filter>
<filter id="filter11_d_129_50230" x="1845.7" y="104.732" width="206.224" height="202.993" filterUnits="userSpaceOnUse" color-interpolation-filters="sRGB">
<feFlood flood-opacity="0" result="BackgroundImageFix"/>
<feColorMatrix in="SourceAlpha" type="matrix" values="0 0 0 0 0 0 0 0 0 0 0 0 0 0 0 0 0 0 127 0" result="hardAlpha"/>
<feOffset dy="4"/>
<feGaussianBlur stdDeviation="35"/>
<feComposite in2="hardAlpha" operator="out"/>
<feColorMatrix type="matrix" values="0 0 0 0 1 0 0 0 0 1 0 0 0 0 1 0 0 0 1 0"/>
<feBlend mode="normal" in2="BackgroundImageFix" result="effect1_dropShadow_129_50230"/>
<feBlend mode="normal" in="SourceGraphic" in2="effect1_dropShadow_129_50230" result="shape"/>
</filter>
<filter id="filter12_d_129_50230" x="1988.04" y="272.458" width="185.678" height="218.722" filterUnits="userSpaceOnUse" color-interpolation-filters="sRGB">
<feFlood flood-opacity="0" result="BackgroundImageFix"/>
<feColorMatrix in="SourceAlpha" type="matrix" values="0 0 0 0 0 0 0 0 0 0 0 0 0 0 0 0 0 0 127 0" result="hardAlpha"/>
<feOffset dy="4"/>
<feGaussianBlur stdDeviation="35"/>
<feComposite in2="hardAlpha" operator="out"/>
<feColorMatrix type="matrix" values="0 0 0 0 1 0 0 0 0 1 0 0 0 0 1 0 0 0 1 0"/>
<feBlend mode="normal" in2="BackgroundImageFix" result="effect1_dropShadow_129_50230"/>
<feBlend mode="normal" in="SourceGraphic" in2="effect1_dropShadow_129_50230" result="shape"/>
</filter>
<filter id="filter13_d_129_50230" x="2120.4" y="204.167" width="206.123" height="203.164" filterUnits="userSpaceOnUse" color-interpolation-filters="sRGB">
<feFlood flood-opacity="0" result="BackgroundImageFix"/>
<feColorMatrix in="SourceAlpha" type="matrix" values="0 0 0 0 0 0 0 0 0 0 0 0 0 0 0 0 0 0 127 0" result="hardAlpha"/>
<feOffset dy="4"/>
<feGaussianBlur stdDeviation="35"/>
<feComposite in2="hardAlpha" operator="out"/>
<feColorMatrix type="matrix" values="0 0 0 0 1 0 0 0 0 1 0 0 0 0 1 0 0 0 1 0"/>
<feBlend mode="normal" in2="BackgroundImageFix" result="effect1_dropShadow_129_50230"/>
<feBlend mode="normal" in="SourceGraphic" in2="effect1_dropShadow_129_50230" result="shape"/>
</filter>
<filter id="filter14_d_129_50230" x="2246.03" y="134.336" width="191.642" height="214.328" filterUnits="userSpaceOnUse" color-interpolation-filters="sRGB">
<feFlood flood-opacity="0" result="BackgroundImageFix"/>
<feColorMatrix in="SourceAlpha" type="matrix" values="0 0 0 0 0 0 0 0 0 0 0 0 0 0 0 0 0 0 127 0" result="hardAlpha"/>
<feOffset dy="4"/>
<feGaussianBlur stdDeviation="35"/>
<feComposite in2="hardAlpha" operator="out"/>
<feColorMatrix type="matrix" values="0 0 0 0 1 0 0 0 0 1 0 0 0 0 1 0 0 0 1 0"/>
<feBlend mode="normal" in2="BackgroundImageFix" result="effect1_dropShadow_129_50230"/>
<feBlend mode="normal" in="SourceGraphic" in2="effect1_dropShadow_129_50230" result="shape"/>
</filter>
<filter id="filter15_d_129_50230" x="2115.74" y="1.31494" width="194.93" height="212.304" filterUnits="userSpaceOnUse" color-interpolation-filters="sRGB">
<feFlood flood-opacity="0" result="BackgroundImageFix"/>
<feColorMatrix in="SourceAlpha" type="matrix" values="0 0 0 0 0 0 0 0 0 0 0 0 0 0 0 0 0 0 127 0" result="hardAlpha"/>
<feOffset dy="4"/>
<feGaussianBlur stdDeviation="35"/>
<feComposite in2="hardAlpha" operator="out"/>
<feColorMatrix type="matrix" values="0 0 0 0 1 0 0 0 0 1 0 0 0 0 1 0 0 0 1 0"/>
<feBlend mode="normal" in2="BackgroundImageFix" result="effect1_dropShadow_129_50230"/>
<feBlend mode="normal" in="SourceGraphic" in2="effect1_dropShadow_129_50230" result="shape"/>
</filter>
</defs>
</svg>
